<?xml version="1.0" encoding="utf-8"?><!DOCTYPE svg PUBLIC "-//W3C//DTD SVG 1.1//EN" "http://www.w3.org/Graphics/SVG/1.1/DTD/svg11.dtd"><svg width="350" height="310" viewBox="0 0 350 310" xmlns="http://www.w3.org/2000/svg" xmlns:xlink="http://www.w3.org/1999/xlink"><svg width="160" height="85" viewBox="-25.5 -9.5 160 85" id="contact-card"><path fill="#0074E4" d="M33 33c4.95 0 9-4.05 9-9s-4.05-9-9-9-9 4.05-9 9 4.05 9 9 9zm0 4.5c-6.075 0-18 2.925-18 9V51h36v-4.5c0-6.075-11.925-9-18-9zM62 19h30v6H62zM62 30h30v6H62zM62 41h30v6H62z"/><path fill="#0074E4" d="M95.047 65.907H13.892C6.232 65.907 0 59.676 0 52.016V13.892C0 6.232 6.232 0 13.892 0h81.155c7.66 0 13.893 6.232 13.893 13.892v38.124c-.002 7.66-6.233 13.891-13.893 13.891zM13.892 6C9.541 6 6 9.541 6 13.892v38.124c0 4.353 3.541 7.893 7.892 7.893h81.155c4.352 0 7.893-3.54 7.893-7.893V13.892C102.939 9.54 99.398 6 95.047 6H13.892z"/></svg><svg width="16" height="16" viewBox="0 0 16 16" id="features" x="48" y="294"><circle fill="#D72B2B" cx="8" cy="3.719" r="3.719"/><circle fill="#6C0081" cx="3.719" cy="11.281" r="3.719"/><circle fill="#0074E4" cx="12.281" cy="11.281" r="3.719"/></svg><svg width="63" height="64" viewBox="-0.207 0.025 63 64" overflow="visible" id="house-with-magnifier" y="170"><path fill="#FFF" d="M29.311 59.566H7.352V30.544H0l9.393-9.393V2.401H23.29l.032 4.734L30.31 0l17.797 18.882-1.455 1.372L30.283 2.887l-8.929 9.114-.051-7.6h-9.91v17.578l-6.565 6.565h4.524v29.022h19.959z"/><path fill="#FFF" d="M57.781 64.025a4.977 4.977 0 0 1-3.545-1.469L48.17 56.49a5.055 5.055 0 0 1-1.428-4.189.136.136 0 0 0-.04-.116l-.161-.161a.137.137 0 0 0-.098-.04c-2.433 1.543-5.173 2.347-7.998 2.347-1.978 0-3.896-.388-5.703-1.152a14.57 14.57 0 0 1-4.657-3.14 14.62 14.62 0 0 1-3.14-4.656c-.765-1.807-1.152-3.727-1.152-5.704s.388-3.897 1.152-5.704a14.586 14.586 0 0 1 3.14-4.657 14.62 14.62 0 0 1 4.657-3.14 14.761 14.761 0 0 1 11.407 0 14.586 14.586 0 0 1 4.657 3.14 14.62 14.62 0 0 1 4.293 10.361 14.57 14.57 0 0 1-2.326 7.921.14.14 0 0 0 .02.173l.162.162a.14.14 0 0 0 .098.041c.233-.028.449-.043.662-.043 1.339 0 2.598.521 3.545 1.469l6.066 6.066a4.977 4.977 0 0 1 1.467 3.545 4.97 4.97 0 0 1-1.468 3.546 4.987 4.987 0 0 1-3.544 1.466zM46.443 49.983c.571 0 1.108.223 1.512.626l.162.162c.473.474.693 1.124.609 1.783a3.041 3.041 0 0 0 .857 2.521l6.066 6.066c1.139 1.139 3.123 1.139 4.262 0a2.988 2.988 0 0 0 .881-2.131c0-.807-.312-1.563-.881-2.13l-6.066-6.067a3.035 3.035 0 0 0-2.522-.857 2.084 2.084 0 0 1-1.782-.609l-.162-.162a2.151 2.151 0 0 1-.286-2.67 12.574 12.574 0 0 0 2.007-6.838 12.62 12.62 0 0 0-3.707-8.947 12.616 12.616 0 0 0-4.022-2.712 12.76 12.76 0 0 0-9.849 0A12.599 12.599 0 0 0 29.5 30.73a12.62 12.62 0 0 0-3.706 8.947 12.611 12.611 0 0 0 3.706 8.946 12.627 12.627 0 0 0 4.022 2.712c3.789 1.602 8.306 1.221 11.763-1.012a2.14 2.14 0 0 1 1.158-.34z"/><path fill="#FFF" d="M40.94 42.562h-4.492v.02c0 .729.251 1.371.752 1.924s1.185.83 2.051.83c.371 0 .739-.027 1.104-.083s.716-.138 1.055-.249l.195 1.924a9.181 9.181 0 0 1-2.353.303c-1.543 0-2.792-.461-3.745-1.382s-1.431-2.011-1.431-3.267v-.02H32.65v-1.904h1.426v-1.25H32.65v-1.904h1.426v-.117c0-1.289.474-2.408 1.421-3.359s2.192-1.426 3.735-1.426c.391 0 .774.025 1.152.078s.784.127 1.221.225l-.195 1.943c-.352-.104-.712-.188-1.079-.249s-.734-.093-1.099-.093c-.859 0-1.538.291-2.036.874s-.747 1.245-.747 1.987v.137h4.492v1.904h-4.492v1.25h4.492v1.904z"/></svg><svg width="16" height="16" viewBox="0 0 16 16" overflow="visible" id="layers" x="79" y="210"><path fill="#D81D1D" d="M7.938 9.652l6.498-3.947 1.442-.879L7.938 0 0 4.827l1.438.873 6.5 3.952z"/><path fill="#40C931" d="M8.018 14.27l-6.507-3.955-1.429.869 7.939 4.826 7.94-4.826-1.438-.872z"/><path fill="#D3BA26" d="M7.935 11.043L1.43 7.089 0 7.958l7.938 4.827 7.941-4.827-1.439-.873z"/></svg><svg width="14" height="14" viewBox="0 0 14 14" id="little-star--empty" x="336" y="242"><title>little-star--empty</title><path d="M6.824 9.89l-3.612 2.184.966-4.102L1 5.214l4.186-.364L6.824 1l1.638 3.85 4.186.364-3.164 2.758.952 4.102z" fill="#E2E2E2" fill-rule="evenodd"/></svg><svg width="14" height="14" viewBox="0 0 14 14" id="little-star--full" x="336" y="226"><title>little-star--full</title><path d="M6.824 9.89l-3.612 2.184.966-4.102L1 5.214l4.186-.364L6.824 1l1.638 3.85 4.186.364-3.164 2.758.952 4.102z" fill="#F0A00A" fill-rule="evenodd"/></svg><svg width="14" height="14" viewBox="0 0 14 14" id="little-star--half" x="336" y="210"><title>little-star--half</title><g fill="none" fill-rule="evenodd"><path fill="#E2E2E2" d="M6.824 9.89l-3.612 2.184.966-4.102L1 5.214l4.186-.364L6.824 1l1.638 3.85 4.186.364-3.164 2.758.952 4.102z"/><path d="M6.824 1L5.186 4.85 1 5.214l3.178 2.758-.966 4.102L6.824 9.89V1z" fill="#F0A00A"/></g></svg><svg width="30" height="30" viewBox="-0.969 -0.697 55.0 55.0" id="m1" x="210" y="234"><path d="M0 26.705C0 11.949 11.957 0 26.709 0c14.748 0 26.703 11.949 26.703 26.705 0 14.744-11.955 26.703-26.703 26.703C11.957 53.408 0 41.449 0 26.705" fill="#f2c931"/><path d="M30.824 40.785V12.48h-4.932c-1.279 1-4.328 2.885-7.615 4.447l-1.725.809 1.924 4.328 1.492-.768c1.035-.512 3.879-1.996 4.844-2.76v22.248h6.012" fill="#231F20"/></svg><svg width="16" height="16" viewBox="0 0 16 16" id="m1--small" x="143" y="210"><title>m1--small</title><g fill-rule="nonzero" fill="none"><path d="M0 7.913A7.912 7.912 0 0 1 7.914 0 7.913 7.913 0 1 1 0 7.913" fill="#F2C931"/><path d="M9.133 12.084V3.698H7.672c-.38.296-1.283.855-2.257 1.317l-.51.24.57 1.282.441-.227c.307-.152 1.15-.591 1.436-.818v6.592h1.781" fill="#231F20"/></g></svg><svg width="30" height="30" viewBox="-0.653 -0.146 55.0 55.0" id="m10" x="120" y="264"><path d="M-.653 26.561C-.653 11.815 11.308-.146 26.05-.146c14.758 0 26.715 11.961 26.715 26.707S40.808 53.268 26.05 53.268c-14.742 0-26.703-11.961-26.703-26.707" fill="#e0b03a"/><path d="M19.632 40.718V12.413h-4.934c-1.285 1-4.332 2.887-7.613 4.457l-1.73.797 1.926 4.336 1.488-.77c1.035-.523 3.883-2.008 4.848-2.762v22.247h6.015m24.641-14.067c0-6.539-1.68-14.797-10.223-14.797-8.539 0-10.391 8.258-10.391 14.797 0 6.539 1.688 14.797 10.227 14.797 8.551 0 10.387-8.258 10.387-14.797zm-6.129 0c0 2.812-.156 10.059-4.176 10.059-4 0-4.211-7.207-4.211-10.059 0-2.895.121-10.023 4.211-10.023 4.051 0 4.176 7.054 4.176 10.023z" fill="#231f20"/></svg><svg width="16" height="16" viewBox="0 0 16 16" id="m10--small" x="32" y="294"><title>m10--small</title><g fill-rule="nonzero" fill="none"><path d="M.103 8.018c0-4.29 3.544-7.77 7.912-7.77 4.373 0 7.915 3.48 7.915 7.77 0 4.29-3.542 7.77-7.915 7.77-4.368 0-7.912-3.48-7.912-7.77" fill="#E0B03A"/><path d="M6.113 12.136V3.902H4.651c-.38.29-1.283.84-2.255 1.297l-.513.231.57 1.262.442-.224c.306-.152 1.15-.584 1.436-.804v6.472h1.782zm7.301-4.092c0-1.902-.498-4.305-3.029-4.305-2.53 0-3.079 2.403-3.079 4.305 0 1.902.5 4.305 3.03 4.305 2.534 0 3.078-2.403 3.078-4.305zm-1.816 0c0 .818-.046 2.926-1.237 2.926-1.185 0-1.248-2.096-1.248-2.926 0-.842.036-2.916 1.248-2.916 1.2 0 1.237 2.052 1.237 2.916z" fill="#231F20"/></g></svg><svg width="30" height="30" viewBox="-0.968 -0.697 55.0 55.0" id="m11" x="150" y="264"><path fill="#8e6538" d="M0 26.707C0 11.959 11.961 0 26.695 0c14.758 0 26.719 11.959 26.719 26.707S41.453 53.408 26.695 53.408C11.961 53.408 0 41.455 0 26.707"/><path fill="#FFF" d="M22.969 40.812V12.508h-4.934c-1.281 1.004-4.328 2.885-7.617 4.447l-1.723.805 1.918 4.332 1.484-.764c1.043-.525 3.895-2.004 4.852-2.764v22.248h6.02m17.605 0V12.508h-4.918c-1.281 1.004-4.32 2.885-7.602 4.447l-1.719.805 1.918 4.332 1.48-.764c1.039-.525 3.879-2.004 4.84-2.764v22.248h6.001z"/></svg><svg width="16" height="16" viewBox="0 0 16 16" id="m11--small" x="292" y="85"><title>m11--small</title><g fill-rule="nonzero" fill="none"><path d="M0 7.913a7.914 7.914 0 1 1 15.827 0A7.914 7.914 0 0 1 0 7.914" fill="#8E6538"/><path d="M6.806 12.092V3.706H5.344c-.38.298-1.283.855-2.257 1.318l-.51.238.568 1.284.44-.227c.308-.155 1.153-.593 1.437-.819v6.592h1.784zm5.216 0V3.706h-1.457c-.38.298-1.28.855-2.253 1.318l-.509.238.568 1.284.439-.227c.308-.155 1.15-.593 1.434-.819v6.592h1.778z" fill="#FFF"/></g></svg><svg width="30" height="30" viewBox="-0.971 -0.692 55.0 55.0" id="m12" x="180" y="264"><path fill="#028D5B" d="M0 26.703C0 11.965 11.957 0 26.705 0c14.752 0 26.703 11.965 26.703 26.703 0 14.762-11.951 26.715-26.703 26.715C11.957 53.418 0 41.465 0 26.703"/><path fill="#FFF" d="M20.289 40.238v-28.32h-4.938c-1.279 1.008-4.332 2.898-7.615 4.461l-1.725.793 1.924 4.336 1.484-.762c1.045-.523 3.893-2.008 4.854-2.766v22.258h6.016m23.115 0V35.5H31.74c.369-1.648 3.205-4.012 4.652-5.336 3.408-3.082 6.496-5.297 6.496-10.141 0-5.777-4.697-8.582-9.664-8.582-3.809 0-6.336 1.133-9.057 3.484l2.961 3.926c.68-.746 2.404-2.559 4.891-2.559 3.09 0 4.689 1.969 4.689 4.41 0 2.73-2.045 4.684-3.924 6.336-3.773 3.285-7.021 6.176-7.74 9.461v3.738h18.36z"/></svg><svg width="16" height="16" viewBox="0 0 16 16" id="m12--small" x="256" y="145"><title>m12--small</title><g fill-rule="nonzero" fill="none"><path d="M0 7.912a7.913 7.913 0 0 1 15.825 0A7.913 7.913 0 0 1 0 7.912" fill="#028D5B"/><path d="M6.012 11.922v-8.39H4.548c-.379.298-1.283.858-2.256 1.321l-.511.235.57 1.285.44-.226c.31-.155 1.153-.595 1.438-.82v6.595h1.783zm6.848 0V10.52H9.404c.11-.489.95-1.19 1.379-1.582 1.01-.913 1.925-1.569 1.925-3.004 0-1.712-1.392-2.543-2.864-2.543-1.128 0-1.877.336-2.683 1.032l.877 1.163c.201-.22.712-.758 1.45-.758.915 0 1.388.584 1.388 1.307 0 .809-.605 1.388-1.162 1.877-1.118.974-2.08 1.83-2.294 2.804v1.107h5.44z" fill="#FFF"/></g></svg><svg width="30" height="30" viewBox="-0.971 -0.69 55.0 55.0" id="m13" x="232" y="115"><path fill="#89D3DE" d="M0 26.699C0 11.941 11.955 0 26.707 0s26.701 11.941 26.701 26.699c0 14.762-11.949 26.723-26.701 26.723S0 41.461 0 26.699"/><path fill="#231F20" d="M20.695 40.82V12.5h-4.932c-1.287 1-4.336 2.879-7.623 4.441l-1.725.801 1.928 4.359 1.484-.762c1.039-.52 3.889-2 4.848-2.758V40.82h6.02m23.164-8.398c0-3.961-2.367-6.281-5.492-6.883v-.078c3.004-1.121 4.561-3.359 4.561-6.281 0-3.801-3.283-7.16-9.053-7.16-3.336 0-6.055.922-8.5 2.52l1.961 4.16c.92-.758 2.641-2.039 5.252-2.039 2.969 0 4.328 1.602 4.328 3.402 0 2.156-1.721 3.52-4.492 3.52h-2.965v4.68h2.926c2.895 0 5.375 1.039 5.375 4.277 0 2.402-2.039 4.203-5.336 4.203-2.393 0-4.359-.922-5.564-1.84l-2.168 4.359c2.285 1.277 4.488 2.117 8.137 2.117 6.579 0 11.03-4 11.03-8.957z"/></svg><svg width="16" height="16" viewBox="0 0 16 16" id="m13--small" x="111" y="210"><title>m13--small</title><g fill-rule="nonzero" fill="none"><path d="M0 7.91A7.91 7.91 0 0 1 7.913 0a7.908 7.908 0 0 1 7.912 7.91A7.913 7.913 0 1 1 0 7.91" fill="#89D3DE"/><path d="M6.132 12.095V3.704H4.67C4.289 4 3.386 4.557 2.41 5.02l-.51.237.571 1.291.44-.225c.308-.154 1.152-.593 1.436-.818v6.59h1.784zm6.863-2.488c0-1.174-.701-1.862-1.627-2.04v-.023c.89-.332 1.351-.995 1.351-1.861 0-1.126-.972-2.122-2.682-2.122-.988 0-1.794.274-2.518.747l.58 1.233c.273-.225.783-.604 1.557-.604.88 0 1.282.474 1.282 1.008 0 .638-.51 1.043-1.33 1.043h-.88v1.386h.868c.857 0 1.592.308 1.592 1.267 0 .712-.604 1.246-1.58 1.246a2.765 2.765 0 0 1-1.65-.545l-.642 1.291c.677.379 1.33.627 2.411.627 1.95 0 3.268-1.185 3.268-2.653z" fill="#231F20"/></g></svg><svg width="30" height="30" viewBox="-0.971 -0.697 55.0 55.0" id="m14" x="262" y="115"><path fill="#672F8F" d="M0 26.703C0 11.953 11.953 0 26.705 0c14.748 0 26.703 11.953 26.703 26.703S41.453 53.408 26.705 53.408C11.953 53.408 0 41.453 0 26.703"/><path fill="#FFF" d="M20.4 40.859V12.564h-4.936c-1.279 1-4.32 2.889-7.611 4.451l-1.725.789 1.92 4.336 1.488-.756c1.035-.525 3.891-2 4.848-2.768v22.242H20.4M45.16 34.953v-4.414h-3.484v-18h-7.219L23.473 29.695v5.258h12.748v5.891h5.455v-5.891h3.484m-8.939-4.414h-7.896l5.771-9.055c1.121-1.771 1.93-3.492 2.045-3.977h.08v13.032z"/></svg><svg width="16" height="16" viewBox="0 0 16 16" id="m14--small" x="191" y="210"><title>m14--small</title><g fill-rule="nonzero" fill="none"><path d="M0 7.912A7.911 7.911 0 0 1 7.913 0a7.911 7.911 0 0 1 7.912 7.912 7.912 7.912 0 0 1-7.912 7.913A7.912 7.912 0 0 1 0 7.912" fill="#672F8F"/><path d="M6.044 12.106V3.723H4.582c-.379.296-1.28.856-2.255 1.318l-.511.234.569 1.285.44-.224c.307-.156 1.153-.593 1.437-.82v6.59h1.782M13.38 10.356V9.05h-1.032V3.715H10.21L6.955 8.8v1.557h3.777v1.746h1.616v-1.746h1.033zM10.733 9.05h-2.34l1.71-2.683c.333-.525.572-1.035.606-1.179h.024V9.05z" fill="#FFF"/></g></svg><svg width="30" height="30" viewBox="-0.966 -0.696 55.0 55.0" id="m2" x="103" y="170"><path d="M0 26.711C0 11.953 11.953 0 26.707 0s26.711 11.953 26.711 26.711c0 14.742-11.957 26.699-26.711 26.699S0 41.453 0 26.711" fill="#216eb4"/><path d="M36.133 39.574v-4.738h-11.68c.367-1.641 3.211-4.008 4.652-5.328 3.41-3.098 6.496-5.297 6.496-10.148 0-5.77-4.684-8.578-9.656-8.578-3.812 0-6.336 1.121-9.066 3.492l2.977 3.93c.676-.766 2.402-2.57 4.883-2.57 3.086 0 4.688 1.965 4.688 4.406 0 2.734-2.031 4.691-3.918 6.336-3.777 3.289-7.023 6.172-7.742 9.469v3.73h18.366" fill="#FFF"/></svg><svg width="16" height="16" viewBox="0 0 16 16" id="m2--small" x="300" y="234"><title>m2--small</title><g fill-rule="nonzero" fill="none"><path d="M0 7.914A7.912 7.912 0 0 1 7.913 0a7.913 7.913 0 1 1 0 15.825A7.912 7.912 0 0 1 0 7.915" fill="#216EB4"/><path d="M10.706 11.726v-1.404h-3.46c.108-.486.95-1.188 1.378-1.579 1.01-.918 1.924-1.57 1.924-3.007 0-1.71-1.387-2.541-2.86-2.541-1.13 0-1.878.332-2.687 1.034l.882 1.165c.2-.227.712-.762 1.447-.762.914 0 1.39.583 1.39 1.306 0 .81-.603 1.39-1.162 1.877-1.119.975-2.08 1.829-2.294 2.806v1.105h5.442" fill="#FFF"/></g></svg><svg width="30" height="30" viewBox="-0.968 -0.699 55.0 55.0" id="m3" x="133" y="170"><path d="M0 26.701C0 11.953 11.961 0 26.695 0c14.758 0 26.719 11.953 26.719 26.701 0 14.752-11.961 26.703-26.719 26.703C11.961 53.404 0 41.453 0 26.701" fill="#9a9940"/><path d="M36.613 32.357c0-3.961-2.359-6.297-5.48-6.896v-.072c3-1.125 4.562-3.377 4.562-6.297 0-3.771-3.281-7.139-9.082-7.139-3.293 0-6.031.92-8.473 2.531l1.965 4.172c.926-.807 2.641-2.064 5.254-2.064 2.977 0 4.336 1.58 4.336 3.385 0 2.164-1.719 3.531-4.496 3.531h-2.977v4.693h2.934c2.898 0 5.379 1.031 5.379 4.283 0 2.404-2.039 4.164-5.336 4.164a9.5 9.5 0 0 1-5.586-1.836l-2.152 4.359c2.285 1.289 4.488 2.133 8.129 2.133 6.586.001 11.023-3.976 11.023-8.947" fill="#FFF"/></svg><svg width="16" height="16" viewBox="0 0 16 16" id="m3--small" x="320" y="210"><title>m3--small</title><g fill-rule="nonzero" fill="none"><path d="M0 7.911a7.914 7.914 0 0 1 15.826 0 7.913 7.913 0 0 1-7.916 7.912A7.912 7.912 0 0 1 0 7.911" fill="#9A9940"/><path d="M10.848 9.587c0-1.173-.699-1.866-1.623-2.043v-.021c.888-.334 1.351-1 1.351-1.866 0-1.117-.972-2.115-2.69-2.115-.976 0-1.788.272-2.511.75l.582 1.236c.274-.24.783-.612 1.557-.612.882 0 1.285.468 1.285 1.003 0 .641-.51 1.046-1.333 1.046h-.882v1.39h.87c.858 0 1.593.306 1.593 1.27 0 .712-.604 1.234-1.58 1.234a2.815 2.815 0 0 1-1.656-.544l-.637 1.291c.677.382 1.33.632 2.408.632 1.952 0 3.266-1.178 3.266-2.65" fill="#FFF"/></g></svg><svg width="30" height="30" viewBox="-0.971 -0.69 55.0 55.0" id="m3bis" x="163" y="170"><path fill="#89D3DE" d="M0 26.701C0 11.957 11.953 0 26.699 0 41.453 0 53.41 11.957 53.41 26.701c0 14.748-11.957 26.707-26.711 26.707C11.953 53.408 0 41.449 0 26.701"/><path fill="#231F20" d="M37.82 26.969c0-1.984-.895-4.229-3.051-4.229-1.031 0-1.66.561-2.211 1.361V19.82h-2.164v11.344h2.09v-.428c.406.385 1.133.629 1.746.629 2.618 0 3.59-2.56 3.59-4.396m-2.261.301c0 1.119-.305 2.562-1.688 2.562-.98 0-1.312-.512-1.312-1.066v-2.688c0-.473.035-.709.41-1.061a1.412 1.412 0 0 1 1-.416c1.359.001 1.59 1.567 1.59 2.669zm6.394-6.465c0-.668-.461-1.137-1.199-1.137-.734 0-1.211.469-1.211 1.137 0 .656.477 1.133 1.211 1.133.738 0 1.199-.477 1.199-1.133zm-2.281 10.359h2.164v-8.188h-2.164v8.188zm9.828-2.451c0-1.24-.73-1.916-1.82-2.332l-1-.367c-.516-.186-.863-.389-.863-.809 0-.488.414-.779 1.137-.779.52 0 1.18.176 1.648.492l.66-1.586a4.715 4.715 0 0 0-2.203-.539c-1.918 0-3.227 1.207-3.227 2.764 0 .969.488 1.713 1.645 2.16l.969.365c.426.168 1.047.336 1.047.91 0 .641-.695.82-1.262.82a3.53 3.53 0 0 1-1.91-.611l-.664 1.615c.461.273 1.379.621 2.402.621 2.148.001 3.441-1.125 3.441-2.724zM27.395 32.238c0-3.969-2.371-6.293-5.492-6.889v-.084c3.004-1.125 4.574-3.377 4.574-6.293 0-3.768-3.285-7.141-9.059-7.141-3.328 0-6.055.926-8.492 2.533l1.961 4.16c.926-.793 2.645-2.037 5.258-2.037 2.953 0 4.324 1.564 4.324 3.361 0 2.164-1.73 3.531-4.492 3.531h-2.961v4.688h2.918c2.895 0 5.371 1.041 5.371 4.285 0 2.412-2.043 4.172-5.328 4.172-2.406 0-4.371-.924-5.57-1.84l-2.168 4.363c2.285 1.279 4.492 2.125 8.133 2.125 6.573.002 11.023-3.963 11.023-8.934"/></svg><svg width="16" height="16" viewBox="0 0 16 16" id="m3bis--small" x="320" y="258"><title>m3bis--small</title><g fill-rule="nonzero" fill="none"><path d="M0 7.911a7.913 7.913 0 1 1 15.824.003A7.913 7.913 0 0 1 0 7.912" fill="#89D3DE"/><path d="M11.206 7.99c0-.587-.265-1.252-.904-1.252-.306 0-.492.166-.655.403V5.873h-.641v3.36h.619v-.126a.81.81 0 0 0 .517.186c.776 0 1.064-.758 1.064-1.302zm-.67.09c0 .332-.09.76-.5.76-.29 0-.389-.153-.389-.317v-.796c0-.14.01-.21.122-.315a.418.418 0 0 1 .296-.123c.403 0 .471.464.471.791zm1.895-1.916c0-.197-.137-.336-.356-.336-.217 0-.359.139-.359.336 0 .195.142.336.36.336s.355-.141.355-.336zm-.676 3.07h.64V6.808h-.64v2.426zm2.912-.726c0-.368-.217-.568-.54-.691l-.296-.11c-.153-.054-.256-.114-.256-.239 0-.144.123-.23.337-.23.154 0 .35.051.489.145l.195-.47a1.397 1.397 0 0 0-.653-.16c-.568 0-.956.358-.956.82 0 .287.145.507.488.64l.287.108c.126.05.31.1.31.27 0 .19-.206.242-.374.242-.192 0-.41-.072-.566-.18l-.197.478c.137.08.409.184.712.184.637 0 1.02-.334 1.02-.807zM8.117 9.552c0-1.176-.702-1.865-1.627-2.041v-.025c.89-.333 1.355-1 1.355-1.865 0-1.116-.973-2.116-2.684-2.116-.986 0-1.794.275-2.516.751l.58 1.233c.275-.235.784-.604 1.559-.604.875 0 1.28.463 1.28.996 0 .641-.512 1.046-1.33 1.046h-.877v1.39h.864c.858 0 1.592.308 1.592 1.269 0 .714-.606 1.236-1.58 1.236a2.76 2.76 0 0 1-1.65-.545l-.642 1.292c.677.38 1.331.63 2.41.63 1.948 0 3.266-1.174 3.266-2.647" fill="#231F20"/></g></svg><svg width="30" height="30" viewBox="-0.971 -0.696 55.0 55.0" id="m4" x="193" y="170"><path fill="#bb4d98" d="M0 26.707C0 11.949 11.947 0 26.707 0c14.748 0 26.701 11.949 26.701 26.707 0 14.75-11.953 26.703-26.701 26.703C11.947 53.41 0 41.457 0 26.707"/><path fill="#FFF" d="M35.936 34.918v-4.41h-3.488V12.5h-7.215L14.24 29.656v5.262h12.756v5.887h5.451v-5.887h3.489m-8.94-4.41h-7.904l5.775-9.066c1.117-1.77 1.926-3.492 2.041-3.969h.088v13.035z"/></svg><svg width="16" height="16" viewBox="0 0 16 16" id="m4--small" x="160" y="145"><title>m4--small</title><g fill-rule="nonzero" fill="none"><path d="M0 7.913A7.91 7.91 0 0 1 7.913 0a7.91 7.91 0 0 1 7.912 7.913 7.911 7.911 0 0 1-7.912 7.912A7.91 7.91 0 0 1 0 7.913" fill="#BB4D98"/><path d="M10.648 10.346V9.04H9.614V3.704H7.476L4.22 8.787v1.56H8v1.743h1.615v-1.744h1.034zM7.998 9.04H5.658l1.711-2.686c.331-.524.57-1.034.605-1.176h.026V9.04z" fill="#FFF"/></g></svg><svg width="30" height="30" viewBox="-0.966 -0.692 55.0 55.0" id="m5" x="223" y="170"><path fill="#F68F4D" d="M0 26.715C0 11.961 11.965 0 26.703 0c14.758 0 26.715 11.961 26.715 26.715 0 14.742-11.957 26.703-26.715 26.703C11.965 53.418 0 41.457 0 26.715"/><path fill="#231F20" d="M36.309 31.664c0-4.246-3.121-8.531-10.859-8.934l-.809-.039.398-5.414H35.23v-4.695H20.352l-1.125 14.715 4.41.039c5.215.051 6.57 2.848 6.57 4.895 0 3.32-2.758 4.574-4.961 4.574-2.414 0-4.008-.887-5.375-1.812l-2.078 4.418a15.586 15.586 0 0 0 7.773 2.047c6.45-.001 10.743-4.384 10.743-9.794"/></svg><svg width="16" height="16" viewBox="0 0 16 16" id="m5--small" x="224" y="145"><title>m5--small</title><g fill-rule="nonzero" fill="none"><path d="M0 7.916a7.915 7.915 0 1 1 7.912 7.912A7.915 7.915 0 0 1 0 7.916" fill="#F68F4D"/><path d="M10.758 9.382c0-1.258-.925-2.528-3.217-2.647l-.24-.012.118-1.604h3.02V3.728H6.03l-.333 4.36 1.307.012c1.545.015 1.946.843 1.946 1.45 0 .984-.817 1.355-1.47 1.355-.715 0-1.187-.263-1.592-.537l-.616 1.31c.65.366 1.413.606 2.303.606 1.911 0 3.183-1.3 3.183-2.902" fill="#231F20"/></g></svg><svg width="30" height="30" viewBox="-0.968 -0.694 55.0 55.0" id="m6" x="253" y="170"><path fill="#78C696" d="M0 26.703C0 11.949 11.961 0 26.707 0c14.754 0 26.707 11.949 26.707 26.703 0 14.746-11.953 26.711-26.707 26.711C11.961 53.414 0 41.449 0 26.703"/><path fill="#231F20" d="M35.902 30.477c0-5.305-3.766-8.387-8.391-8.387-2.988 0-4.801 1.082-5.758 1.926.359-5.688 3.281-8.539 7.18-8.539 1.59 0 3.043.359 3.793.688l.891-4.812c-1.16-.289-2.613-.477-4.211-.477-8.898 0-13.426 6.723-13.426 16.551 0 7.496 2.719 12.836 10.34 12.836 5.817-.001 9.582-4.142 9.582-9.786m-5.652.601c0 2.438-1.402 4.723-4.133 4.723-2.809 0-4.324-2.605-4.324-5.293 0-.836 0-1.922.32-2.402.559-.887 1.965-1.559 3.688-1.559 2.722 0 4.449 1.879 4.449 4.531z"/></svg><svg width="16" height="16" viewBox="0 0 16 16" id="m6--small" x="288" y="145"><title>m6--small</title><g fill-rule="nonzero" fill="none"><path d="M0 7.912A7.912 7.912 0 0 1 7.913 0 7.914 7.914 0 1 1 0 7.912" fill="#78C696"/><path d="M10.638 9.03c0-1.572-1.116-2.485-2.487-2.485-.885 0-1.422.32-1.706.57.107-1.684.972-2.53 2.128-2.53.47 0 .901.107 1.124.205l.264-1.426a5.264 5.264 0 0 0-1.248-.141c-2.637 0-3.978 1.992-3.978 4.904 0 2.22.805 3.803 3.064 3.803 1.723 0 2.839-1.227 2.839-2.9zm-1.675.178c0 .723-.415 1.4-1.225 1.4-.832 0-1.28-.772-1.28-1.569 0-.247 0-.57.094-.711.166-.263.582-.462 1.093-.462.806 0 1.318.557 1.318 1.342z" fill="#231F20"/></g></svg><svg width="30" height="30" viewBox="-0.968 -0.696 55.0 55.0" id="m7" x="283" y="170"><path fill="#F59EB3" d="M0 26.707C0 11.965 11.961 0 26.707 0s26.707 11.965 26.707 26.707c0 14.75-11.961 26.703-26.707 26.703S0 41.457 0 26.707"/><path fill="#231F20" d="M36.215 18.035v-4.609H16.414v4.73H30.16l-6.89 12.828c-2.488 4.621-3.488 7.008-3.488 10.754h6.457c-.001-4.453 3.757-12.91 9.976-23.703"/></svg><svg width="16" height="16" viewBox="0 0 16 16" id="m7--small" x="95" y="210"><title>m7--small</title><g fill-rule="nonzero" fill="none"><path d="M0 7.913A7.915 7.915 0 0 1 7.913 0a7.913 7.913 0 0 1 0 15.825A7.913 7.913 0 0 1 0 7.913" fill="#F59EB3"/><path d="M10.73 5.344V3.978H4.863V5.38h4.073l-2.041 3.8c-.737 1.37-1.034 2.077-1.034 3.187h1.914c0-1.32 1.113-3.825 2.955-7.023" fill="#231F20"/></g></svg><svg width="30" height="30" viewBox="-0.968 -0.695 55.0 55.0" id="m7bis" y="234"><path fill="#78C696" d="M0 26.707C0 11.959 11.961 0 26.707 0s26.707 11.959 26.707 26.707c0 14.744-11.961 26.705-26.707 26.705S0 41.451 0 26.707"/><path fill="#231F20" d="M28.414 17.152v-4.617H8.617v4.729h13.734l-6.883 12.832c-2.488 4.607-3.492 7.016-3.492 10.744h6.457c.001-4.457 3.758-12.908 9.981-23.688M36.539 30.76c0-1.977-.887-4.221-3.035-4.221-1.051 0-1.672.561-2.223 1.355v-4.275h-2.156v11.348h2.078v-.432c.414.381 1.133.633 1.758.633 2.609 0 3.578-2.568 3.578-4.408m-2.25.306c0 1.117-.309 2.561-1.691 2.561-.98 0-1.316-.504-1.316-1.072v-2.684c0-.48.047-.699.402-1.059a1.464 1.464 0 0 1 1.008-.418c1.367.001 1.597 1.569 1.597 2.672zm6.395-6.474c0-.66-.465-1.133-1.203-1.133-.73 0-1.199.473-1.199 1.133 0 .664.469 1.139 1.199 1.139.738-.001 1.203-.475 1.203-1.139zm-2.282 10.375h2.148v-8.195h-2.148v8.195zm9.817-2.459c0-1.244-.715-1.912-1.82-2.328l-1.004-.367c-.52-.186-.855-.385-.855-.812 0-.492.422-.781 1.137-.781.527 0 1.18.176 1.66.492l.656-1.584a4.856 4.856 0 0 0-2.211-.535c-1.918 0-3.219 1.211-3.219 2.764 0 .957.473 1.711 1.645 2.152l.961.371c.434.176 1.047.34 1.047.908 0 .641-.695.828-1.254.828-.648 0-1.402-.248-1.926-.615l-.656 1.611c.453.275 1.379.623 2.41.623 2.148-.001 3.429-1.128 3.429-2.727z"/></svg><svg width="16" height="16" viewBox="0 0 16 16" id="m7bis--small" x="127" y="210"><title>m7bis--small</title><g fill-rule="nonzero" fill="none"><path d="M0 7.913a7.914 7.914 0 0 1 15.826 0 7.915 7.915 0 0 1-7.913 7.913A7.915 7.915 0 0 1 0 7.913" fill="#78C696"/><path d="M8.419 5.082V3.714H2.553v1.401h4.07l-2.04 3.802c-.737 1.365-1.035 2.08-1.035 3.184h1.914c0-1.32 1.113-3.825 2.957-7.019M10.826 9.114c0-.586-.262-1.25-.899-1.25-.311 0-.495.166-.659.4V6.999H8.63v3.363h.615v-.128a.825.825 0 0 0 .521.187c.773 0 1.06-.76 1.06-1.306zm-.666.09c0 .332-.092.76-.501.76-.29 0-.39-.15-.39-.318V8.85c0-.143.014-.207.119-.314a.434.434 0 0 1 .299-.124c.405 0 .473.465.473.792zm1.895-1.917c0-.196-.138-.336-.357-.336-.216 0-.355.14-.355.336s.139.337.355.337c.219 0 .357-.14.357-.337zm-.677 3.074h.637V7.932h-.637v2.429zm2.91-.729c0-.369-.213-.567-.54-.69l-.298-.109c-.154-.055-.253-.114-.253-.24 0-.146.125-.232.337-.232.156 0 .35.053.492.146l.194-.47a1.439 1.439 0 0 0-.655-.158c-.568 0-.954.36-.954.82 0 .283.14.506.488.637l.284.11c.129.052.31.1.31.269 0 .19-.205.245-.37.245-.193 0-.416-.073-.572-.182l-.194.477c.134.082.409.185.714.185.637 0 1.016-.334 1.016-.808z" fill="#231F20"/></g></svg><svg width="30" height="30" viewBox="-0.461 -0.206 54.0 54.0" id="m8" x="30" y="234"><path fill="#C5A3CC" d="M0 26.7C0 11.953 11.955 0 26.703 0 41.455 0 53.41 11.953 53.41 26.7c0 14.754-11.955 26.715-26.707 26.715C11.955 53.415 0 41.454 0 26.7"/><path fill="#231F20" d="M36.811 32.845c0-3.719-2.283-5.973-4.891-7.203 2.646-1.613 4.016-3.656 4.016-6.297 0-4.86-4.133-7.31-9.104-7.31-4.854 0-9.102 3.255-9.102 7.942 0 2.926 1.525 4.648 3.965 6.172-2.725 1.402-4.848 3.617-4.848 7.379 0 4.293 3.562 8.059 9.859 8.059 5.814 0 10.105-3.363 10.105-8.742M30.52 19.7c0 1.77-1.604 3.402-3.088 4.09-1.801-.762-4.129-2.008-4.129-4.328 0-1.961 1.4-3.328 3.607-3.328 2.324 0 3.61 1.597 3.61 3.566zm.439 13.59c0 2.246-1.484 4.133-4.172 4.133-2.729 0-4.248-2.215-4.248-4.535 0-2.199 1.844-4.043 3.688-4.77 2.404 1.203 4.732 2.606 4.732 5.172z"/></svg><svg width="16" height="16" viewBox="0 0 16 16" id="m8--small" x="159" y="210"><title>m8--small</title><g fill-rule="nonzero" fill="none"><path d="M0 7.911A7.911 7.911 0 0 1 7.912 0a7.914 7.914 0 0 1 0 15.827A7.914 7.914 0 0 1 0 7.91" fill="#C5A3CC"/><path d="M10.907 9.732c0-1.102-.676-1.77-1.45-2.134.785-.478 1.19-1.084 1.19-1.866 0-1.44-1.224-2.166-2.697-2.166-1.438 0-2.697.964-2.697 2.353 0 .867.452 1.377 1.175 1.829-.807.415-1.436 1.072-1.436 2.186 0 1.272 1.055 2.388 2.92 2.388 1.724 0 2.995-.996 2.995-2.59zM9.043 5.837c0 .524-.475 1.008-.915 1.212-.534-.226-1.223-.595-1.223-1.282 0-.582.414-.987 1.068-.987.689 0 1.07.474 1.07 1.057zm.13 4.027c0 .665-.44 1.224-1.236 1.224-.809 0-1.259-.656-1.259-1.343 0-.652.547-1.198 1.093-1.414.712.357 1.402.772 1.402 1.533z" fill="#231F20"/></g></svg><svg width="30" height="30" viewBox="-0.973 -0.694 55.0 55.0" id="m9" x="60" y="234"><path fill="#CEC82B" d="M7.827 45.59c-10.438-10.426-10.434-27.336 0-37.764 10.426-10.439 27.348-10.432 37.746 0 10.441 10.428 10.441 27.338 0 37.764-10.398 10.43-27.32 10.438-37.746 0"/><path fill="#231F20" d="M16.769 21.739c0 5.297 3.766 8.383 8.379 8.383 2.984 0 4.828-1.086 5.785-1.914-.359 5.68-3.32 8.531-7.195 8.531-1.59 0-3.039-.359-3.812-.68l-.883 4.812c1.172.273 2.613.484 4.219.484 8.914 0 13.434-6.742 13.434-16.57 0-7.492-2.719-12.826-10.359-12.826-5.803 0-9.568 4.131-9.568 9.78m5.648-.594c0-2.453 1.41-4.734 4.117-4.734 2.801 0 4.359 2.609 4.359 5.289 0 .852 0 1.93-.32 2.406-.558.887-2.32 1.894-4.039 1.894-2.715 0-4.117-2.207-4.117-4.855z"/></svg><svg width="16" height="16" viewBox="0 0 16 16" id="m9--small" x="223" y="210"><title>m9--small</title><g fill-rule="nonzero" fill="none"><path d="M2.32 13.553a7.665 7.665 0 0 1 0-10.985c3.088-3.037 8.102-3.035 11.183 0a7.662 7.662 0 0 1 0 10.985c-3.08 3.035-8.095 3.037-11.184 0" fill="#CEC82B"/><path d="M4.969 6.615c0 1.54 1.115 2.439 2.482 2.439.884 0 1.43-.316 1.714-.557-.106 1.652-.983 2.482-2.132 2.482-.47 0-.9-.105-1.129-.198l-.262 1.4c.348.08.775.14 1.25.14 2.642 0 3.98-1.96 3.98-4.82 0-2.18-.805-3.731-3.068-3.731-1.72 0-2.835 1.202-2.835 2.845zm1.673-.173c0-.713.418-1.377 1.22-1.377.83 0 1.291.759 1.291 1.539 0 .247 0 .561-.094.7-.166.258-.688.55-1.197.55-.805 0-1.22-.641-1.22-1.412z" fill="#231F20"/></g></svg><svg width="30" height="30" version="1" viewBox="0.0 -0.08868 626.26257 626.26257" id="metro-lille" x="90" y="234"><g transform="matrix(35.46472 0 0 35.46472 -13886.354 14913.023)"><path d="M408.8-411.678c0-4.646-3.77-8.413-8.416-8.413-4.646 0-8.417 3.767-8.417 8.413a8.418 8.418 0 0 0 16.834 0" fill="#fff"/><path d="M408.8-411.678c0-4.646-3.77-8.413-8.416-8.413-4.646 0-8.417 3.767-8.417 8.413a8.418 8.418 0 0 0 16.834 0z" fill="none" stroke="#e2001a" stroke-width=".8250000000000001"/><path d="M395.083-407.581v-8.96h2.461l2.843 2.795 2.82-2.794h2.479v8.959h-2.188v-5.755l-2.18 2.18h-1.866l-2.176-2.167v5.742h-2.193z" fill="none" stroke="#e2001a" stroke-width=".8075"/><path d="M401.316-416.546v5.39l2.18-2.182v2.642l-3.112 3.11-3.115-3.11v-2.642l2.18 2.182v-5.39h1.867z" fill="#e2001a"/></g></svg><svg width="16" height="16" viewBox="0 0 16 16" id="metro-lille--small" x="287" y="210"><title>metro-lille--small</title><g transform="translate(-.3 -2)" fill-rule="nonzero" fill="none"><path d="M15.965 10a7.677 7.677 0 0 0-7.678-7.675c-4.239 0-7.68 3.436-7.68 7.674a7.68 7.68 0 0 0 15.357 0" fill="#FFF"/><path d="M15.589 10A7.303 7.303 0 0 1 .984 10 7.302 7.302 0 0 1 8.287 2.7 7.3 7.3 0 0 1 15.589 10zm.752 0a8.054 8.054 0 0 0-8.054-8.051C3.84 1.949.232 5.554.232 9.999a8.056 8.056 0 0 0 16.11 0z" fill="#E2001A"/><path d="M8.288 7.595l-2.44-2.4H3.082v8.91H5.82v-4.72l1.464 1.459h2.008l1.468-1.468v4.729h2.732v-8.91H10.71l-2.423 2.4zM3.82 13.368V5.932h1.727L8.29 8.63l2.723-2.698h1.741v7.436h-1.259v-5.77l-2.51 2.509H7.59L5.083 7.613v5.755H3.819z" fill="#E2001A"/><path d="M9.137 5.558v4.917l1.99-1.99v2.41l-2.84 2.838-2.842-2.838v-2.41l1.99 1.99V5.558z" fill="#E2001A"/></g></svg><svg width="60" height="30" viewBox="0.0 0.0 60.0 30.0" id="metro-lyon" x="232" y="85"><path d="M4.402 0h48.632c4.622 7.644 4.132 14.875 4.132 14.875s.342 7.699-4.132 14.875H4.399C-.38 21.956.292 14.875.292 14.875S-.5 8.252 4.402 0z" fill="#ee1c25"/><path d="M18.172 4.299l-.782 22.185h4.137l.145-15.88.636 2.083 4.135 13.797h4.137l4.05-13.478.722-2.401.145 15.88h4.136l-.752-22.128h-5.177l-4.715 15.185c-.174.579-.28.983-.319 1.215-.038.309-.067.656-.086 1.041h-.087a14.237 14.237 0 0 0-.115-1.099c-.04-.29-.145-.694-.319-1.214L23.35 4.299z" style="line-height:125%;-inkscape-font-specification:'Confluence Bold';text-align:center" font-weight="700" font-size="70" font-family="Confluence" letter-spacing="0" word-spacing="0" text-anchor="middle" fill="#fff"/></svg><svg width="16" height="16" viewBox="0 0 16 16" id="metro-lyon--small" y="294"><title>metro-lyon--small</title><g transform="translate(0 4)" fill-rule="nonzero" fill="none"><path d="M1.214 0H14.63c1.275 2.109 1.14 4.103 1.14 4.103s.094 2.124-1.14 4.104H1.213C-.105 6.057.081 4.104.081 4.104S-.138 2.276 1.214 0z" fill="#EE1C25"/><path d="M5.013 1.186l-.216 6.12h1.141l.04-4.38.176.574 1.14 3.806h1.142l1.117-3.718.2-.663.04 4.381h1.14l-.207-6.104H9.298L7.997 5.391c-.048.16-.077.271-.088.335-.01.085-.018.181-.024.287h-.024a3.927 3.927 0 0 0-.032-.303c-.01-.08-.04-.191-.087-.335L6.44 1.185H5.013z" fill="#FFF"/></g></svg><svg width="30" height="30" viewBox="0.0 0.0 400.0 400.0" id="metro-paris" x="150" y="234"><path d="M399 200.987C399 90.544 306.459 1 200.49 1 90.54 1 1 90.544 1 200.987 1 310.429 90.54 399 200.49 399S399 310.919 399 200.987" fill="#14489e"/><path d="M371.639 200.987c0 93.534-77.106 171.617-171.148 171.617-94.509 0-172.129-77.09-172.129-171.617 0-95.003 77.62-173.631 172.129-173.631 94.041 0 171.148 79.111 171.148 173.631z" fill="#fff"/><path d="M298.987 289.039V115.424c0-9.945-5.452-20.394-21.879-20.394-12.417 0-17.411 5.474-22.877 16.428L200.49 223.387H200l-54.232-111.929c-5.474-10.954-10.442-16.428-22.89-16.428-16.414 0-21.889 10.449-21.889 20.394v173.615c0 9.479 7.472 14.929 16.415 14.929 7.954 0 16.911-5.45 16.911-14.929V159.702h.505l49.249 100.491c3.483 6.967 7.97 10.963 15.931 10.963 7.947 0 12.434-3.996 15.923-10.963l49.241-100.491h.506v129.337c0 9.479 8.942 14.929 16.904 14.929 8.971 0 16.413-5.45 16.413-14.929z" fill="#14489e"/></svg><svg width="16" height="16" viewBox="0 0 16 16" id="metro-paris--small" x="64" y="294"><title>metro-paris--small</title><g fill-rule="nonzero" fill="none"><path d="M16 8.04C16 3.6 12.28 0 8.02 0 3.6 0 0 3.6 0 8.04 0 12.44 3.6 16 8.02 16S16 12.46 16 8.04" fill="#14489E"/><path d="M14.9 8.04c0 3.76-3.1 6.899-6.88 6.899-3.8 0-6.92-3.1-6.92-6.9 0-3.819 3.12-6.98 6.92-6.98 3.78 0 6.88 3.18 6.88 6.98z" fill="#FFF"/><path d="M11.98 11.58V4.6c0-.4-.22-.82-.88-.82-.5 0-.7.22-.92.66l-2.16 4.5H8l-2.18-4.5C5.6 4 5.4 3.78 4.9 3.78c-.66 0-.88.42-.88.82v6.98c0 .38.3.6.66.6.32 0 .68-.22.68-.6v-5.2h.02l1.98 4.04c.14.28.32.44.64.44s.5-.16.64-.44l1.98-4.04h.02v5.2c0 .38.36.6.68.6.36 0 .66-.22.66-.6z" fill="#14489E"/></g></svg><svg width="30" height="30" viewBox="-111.614365 0.0 559.84247 559.84247" id="metro-rennes" x="320" y="60"><defs><clipPath id="bta"><path d="M0 0h269.29v447.87H0V0z"/></clipPath></defs><g transform="matrix(1.25 0 0 -1.25 0 559.842)"><path d="M288.732 323.86V109.217c0-8.129-11.965-12.513-23.748-12.513-11.965 0-24.022 4.384-24.022 12.513v188.795c-40.188 17.993-74.074 4.384-82.569.182V109.217c0-8.129-11.965-12.513-23.747-12.513-11.966 0-24.022 4.384-24.022 12.513v188.795c-40.189 17.993-73.892 4.384-82.387.182V109.217c0-8.129-12.056-12.513-23.839-12.513-11.874 0-23.93 4.384-23.93 12.513v217.201l2.283 1.187c64.85 36.444 122.758 22.56 152.443 10.413 83.208 33.886 150.98-10.139 151.62-10.596l1.918-1.37v-2.192zM134.646 446.618c-122.94 0-222.681-99.65-222.681-222.772 0-123.032 99.74-222.59 222.68-222.59 122.94 0 222.681 99.558 222.681 222.59 0 123.123-99.74 222.772-222.68 222.772" fill="#2b4794"/></g></svg><svg width="16" height="16" viewBox="0 0 16 16" id="metro-rennes--small" x="320" y="226"><title>metro-rennes--small</title><defs><path id="bua" d="M0 0h9.6v15.967H0z"/></defs><g transform="matrix(1 0 0 -1 .021 15.996)" fill="none" fill-rule="evenodd"><path d="M13.466 11.546V3.894c0-.29-.426-.446-.846-.446-.427 0-.857.156-.857.446v6.73c-1.432.642-2.64.157-2.943.007V3.894c0-.29-.427-.446-.847-.446-.426 0-.856.156-.856.446v6.73c-1.433.642-2.635.157-2.937.007V3.894c0-.29-.43-.446-.85-.446-.424 0-.853.156-.853.446v7.743l.081.042c2.312 1.3 4.376.805 5.435.372 2.966 1.208 5.382-.362 5.405-.378l.068-.049v-.078zm-5.493 4.376A7.94 7.94 0 0 1 .034 7.98 7.936 7.936 0 0 1 7.974.045a7.936 7.936 0 0 1 7.938 7.935 7.94 7.94 0 0 1-7.939 7.942z" fill-rule="nonzero" fill="#2B4794"/></g></svg><svg width="160" height="85" viewBox="-3 -5.5 160 85" id="rating" x="160"><path fill="#0074E4" d="M29.871 54.366a1.42 1.42 0 0 0-1.131-1l-8.646-1.316-3.867-8.209a1.396 1.396 0 0 0-1.257-.817c-.533 0-1.021.316-1.257.817L9.846 52.05 1.2 53.366a1.417 1.417 0 0 0-1.131 1 1.52 1.52 0 0 0 .354 1.505l6.256 6.39-1.477 9.021c-.09.552.126 1.108.558 1.438a1.351 1.351 0 0 0 1.477.111l7.733-4.261 7.733 4.261c.205.112.429.169.652.169.291 0 .58-.095.824-.28.432-.329.647-.886.558-1.438l-1.477-9.021 6.256-6.39c.382-.391.52-.975.355-1.505M60.871 54.366a1.42 1.42 0 0 0-1.131-1l-8.646-1.316-3.867-8.209a1.396 1.396 0 0 0-1.257-.817c-.533 0-1.021.316-1.257.817l-3.867 8.209-8.646 1.316a1.417 1.417 0 0 0-1.131 1 1.52 1.52 0 0 0 .354 1.505l6.256 6.39-1.477 9.021c-.09.552.126 1.108.558 1.438a1.351 1.351 0 0 0 1.477.111l7.733-4.261 7.733 4.261c.205.112.429.169.652.169.291 0 .58-.095.824-.28.432-.329.648-.886.558-1.438l-1.477-9.021 6.256-6.39c.382-.391.52-.975.355-1.505M91.871 54.366a1.419 1.419 0 0 0-1.131-1l-8.646-1.316-3.867-8.209a1.394 1.394 0 0 0-1.256-.817c-.533 0-1.021.316-1.257.817l-3.867 8.209-8.647 1.316a1.417 1.417 0 0 0-1.131 1 1.52 1.52 0 0 0 .354 1.505l6.256 6.39-1.477 9.021c-.09.552.126 1.108.558 1.438a1.351 1.351 0 0 0 1.477.111l7.733-4.261 7.733 4.261c.205.112.43.169.652.169.291 0 .58-.095.824-.28.432-.329.646-.886.557-1.438l-1.478-9.021 6.257-6.39c.383-.391.521-.975.356-1.505M122.871 54.366a1.419 1.419 0 0 0-1.131-1l-8.646-1.316-3.867-8.209c-.235-.501-.723-.817-1.256-.817s-1.021.316-1.258.817l-3.867 8.209-8.646 1.316a1.419 1.419 0 0 0-1.132 1 1.522 1.522 0 0 0 .354 1.505l6.257 6.39-1.478 9.021a1.502 1.502 0 0 0 .557 1.438 1.353 1.353 0 0 0 1.478.111l7.732-4.261 7.733 4.261c.205.112.43.169.651.169.291 0 .58-.095.824-.28a1.51 1.51 0 0 0 .559-1.438l-1.479-9.021 6.258-6.39c.384-.391.522-.975.357-1.505M125.2 53.366l8.646-1.316 3.867-8.209c.236-.501 1.258-.817 1.258-.817v25.549l-7.734 4.26a1.342 1.342 0 0 1-1.474-.111 1.505 1.505 0 0 1-.558-1.438l1.478-9.021-6.257-6.39a1.51 1.51 0 0 1-.354-1.505c.16-.534.6-.923 1.128-1.002z"/><path fill="#CCC" d="M152.77 53.366l-8.646-1.316-3.865-8.209c-.238-.501-1.259-.82-1.259-.82V68.57l7.732 4.261c.205.112.43.169.651.169.291 0 .58-.095.824-.28a1.51 1.51 0 0 0 .56-1.438l-1.478-9.021 6.256-6.39c.382-.391.521-.975.354-1.505a1.414 1.414 0 0 0-1.129-1z"/><g fill="#0074E4"><path d="M57.862 18.409h3.533v2.725h-3.533v5.889h-3.445v-5.889H42.921v-1.953L54.206 1.429h3.656v16.98zm-11.25 0h7.805V6.403l-.105-.018-.334.879-7.366 11.145zM67.759 26.179l-2.637 5.379h-2.057l1.23-5.555v-2.865h3.463l.001 3.041zM76.144 12.626h3.023c1.535 0 2.622-.384 3.261-1.151s.959-1.837.959-3.208c0-1.465-.363-2.578-1.091-3.34s-1.799-1.143-3.217-1.143c-1.349 0-2.429.396-3.243 1.187s-1.222 1.843-1.222 3.155h-3.322l-.035-.105c-.059-1.934.642-3.577 2.101-4.931s3.366-2.03 5.722-2.03c2.367 0 4.254.63 5.66 1.89 1.406 1.26 2.109 3.056 2.109 5.388 0 1.055-.32 2.106-.959 3.155s-1.597 1.849-2.873 2.399c1.534.504 2.621 1.295 3.26 2.373.64 1.078.959 2.285.959 3.621 0 2.332-.766 4.166-2.295 5.502-1.528 1.336-3.482 2.004-5.861 2.004-2.332 0-4.263-.63-5.792-1.89-1.529-1.26-2.265-2.968-2.206-5.124l.053-.105h3.305c0 1.343.413 2.41 1.239 3.204.826.794 1.959 1.19 3.401 1.19 1.465 0 2.613-.396 3.445-1.19s1.248-1.968 1.248-3.521c0-1.576-.369-2.737-1.107-3.484-.738-.747-1.904-1.121-3.498-1.121h-3.023l-.001-2.725z"/></g><g fill="#4A4A4A"><path d="M95.843 28.243h-1.641l5.938-15.439h1.631l-5.928 15.439zM104.057 20.606l.819-7.803h7.119v1.709h-5.488l-.469 3.994c.3-.222.634-.405 1.001-.552s.793-.227 1.273-.239c1.31-.013 2.34.413 3.092 1.279.752.866 1.128 2.031 1.128 3.496 0 1.426-.382 2.571-1.147 3.438s-1.88 1.299-3.345 1.299c-1.204 0-2.207-.329-3.008-.986-.802-.657-1.185-1.624-1.152-2.9l.021-.059h1.738c0 .771.223 1.37.668 1.795.445.425 1.023.637 1.733.637.813 0 1.444-.286 1.896-.858.448-.571.674-1.355.674-2.35 0-.91-.229-1.657-.685-2.242s-1.084-.878-1.885-.878c-.755 0-1.302.114-1.642.342-.338.228-.586.576-.741 1.045l-1.6-.167z"/></g></svg><svg width="30" height="30" viewBox="0 0 30 30" id="rer" x="240" y="234"><path d="M29.81 14.98C29.81 6.705 22.878 0 14.942 0 6.706 0 0 6.706 0 14.98c0 8.159 6.706 14.83 14.942 14.83 8.235 0 14.868-6.598 14.868-14.83" fill="#184b9c"/><path d="M27.76 14.98c0 7.005-5.776 12.78-12.818 12.78-7.08 0-12.893-5.738-12.893-12.78 0-7.117 5.812-12.968 12.893-12.968 7.042 0 12.817 5.887 12.817 12.967z" fill="#fff"/><path d="M25.6 12.594c0-2.011-1.49-2.944-2.946-2.944H19.86c-.523 0-.821.412-.821.858v8.755c0 .525.52.784 1.006.784.558 0 1.006-.26 1.006-.784v-3.39h.857l1.677 3.765c.149.297.41.41.707.41.598 0 1.455-.56 1.12-1.231l-1.604-3.353c.97-.485 1.79-1.341 1.79-2.87zM18.034 19.078c0-.447-.298-.931-.82-.931h-2.831v-2.571h2.347c.522 0 .82-.449.82-.857 0-.448-.298-.86-.82-.86h-2.347v-2.347h2.608c.523 0 .819-.52.819-.93 0-.447-.296-.932-.82-.932h-3.8c-.52 0-.819.412-.819.858v8.719c0 .523.521.783 1.005.783h3.838c.522 0 .82-.521.82-.932zM11.178 12.594c0-2.011-1.49-2.944-2.943-2.944H5.44c-.52 0-.818.412-.818.858v8.755c0 .525.521.784 1.005.784.561 0 1.006-.26 1.006-.784v-3.39h.858l1.675 3.765c.152.297.412.41.708.41.597 0 1.454-.56 1.118-1.231L9.39 15.464c.968-.485 1.788-1.341 1.788-2.87z" fill="#184b9c"/><path d="M23.513 12.819c0 1.266-1.155 1.564-1.865 1.564h-.595v-3.018h.708c.93 0 1.752.41 1.752 1.454zM9.093 12.819c0 1.266-1.156 1.564-1.866 1.564h-.595v-3.018h.707c.932 0 1.754.41 1.754 1.454z" fill="#fff"/></svg><svg width="16" height="16" viewBox="0 0 16 16" id="rer--small" x="320" y="274"><title>rer--small</title><g fill-rule="nonzero" fill="none"><path d="M15.898 7.989C15.898 3.577 12.202 0 7.968 0 3.578 0 0 3.577 0 7.989c0 4.352 3.577 7.91 7.969 7.91a7.897 7.897 0 0 0 7.93-7.91" fill="#184B9C"/><path d="M14.805 7.989c0 3.736-3.08 6.817-6.836 6.817-3.776 0-6.876-3.06-6.876-6.817 0-3.796 3.1-6.916 6.876-6.916 3.756 0 6.836 3.14 6.836 6.916z" fill="#FFF"/><path d="M13.653 6.717c0-1.073-.795-1.57-1.571-1.57h-1.49c-.278 0-.437.22-.437.457v4.67c0 .28.277.418.536.418.298 0 .537-.138.537-.419V8.465h.457l.894 2.008c.08.159.219.219.377.219.32 0 .777-.298.597-.656l-.855-1.788c.517-.259.955-.716.955-1.531zM9.618 10.175c0-.239-.159-.497-.437-.497h-1.51V8.307h1.252c.278 0 .437-.24.437-.457 0-.239-.159-.458-.437-.458H7.67V6.14h1.39c.28 0 .437-.278.437-.496 0-.239-.157-.497-.436-.497H7.035c-.278 0-.437.22-.437.457v4.65c0 .28.278.418.536.418H9.18c.278 0 .437-.278.437-.497zM5.961 6.717c0-1.073-.794-1.57-1.569-1.57H2.901c-.278 0-.437.22-.437.457v4.67c0 .28.279.418.537.418.299 0 .536-.138.536-.419V8.465h.458l.893 2.008c.08.159.22.219.377.219.32 0 .776-.298.597-.656l-.854-1.788c.516-.259.953-.716.953-1.531z" fill="#184B9C"/><path d="M12.54 6.837c0 .675-.616.834-.994.834h-.318v-1.61h.378c.496 0 .934.22.934.776zM4.85 6.837c0 .675-.617.834-.996.834h-.317v-1.61h.377c.497 0 .936.22.936.776z" fill="#FFF"/></g></svg><svg width="30" height="30" viewBox="0 0 30 30" id="rer-a" x="270" y="234"><path fill="#D3603A" d="M30 14.999C29.996 6.715 23.279.003 14.999 0 6.717-.001.004 6.715 0 14.999.001 23.286 6.712 29.991 14.997 30c8.282-.003 15-6.714 15.003-15.001"/><path fill="#FFF" d="M27.89 14.999c0-7.122-5.776-12.891-12.9-12.9C7.868 2.1 2.089 7.876 2.091 14.991 2.085 22.123 7.868 27.895 14.989 27.9c7.122 0 12.901-5.775 12.901-12.901"/><path fill="#D3603A" d="M8.05 21.439l3.387-.003.901-2.726h5.308l.893 2.726 3.127.003-5.078-14.37H13.15l-5.1 14.37m5.06-5.095l1.487-4.581c.199-.614.363-1.354.363-1.803l.046-.004c-.001.487.176 1.234.365 1.813l1.475 4.569-3.736.006z"/></svg><svg width="16" height="16" viewBox="0 0 16 16" id="rer-a--small" x="292" y="115"><title>rer-a--small</title><g fill-rule="nonzero" fill="none"><path d="M16 8a8.004 8.004 0 0 0-8-8 8.001 8.001 0 0 0-.002 16c4.417-.002 8-3.58 8.002-8" fill="#D3603A"/><path d="M14.875 8c0-3.799-3.08-6.876-6.88-6.88-3.799 0-6.88 3.08-6.88 6.875a6.881 6.881 0 0 0 6.88 6.885c3.798 0 6.88-3.08 6.88-6.88" fill="#FFF"/><path d="M4.293 11.434l1.807-.001.48-1.454h2.831l.476 1.454 1.668.001L8.847 3.77H7.013l-2.72 7.664zm2.699-2.717l.793-2.443c.106-.328.194-.723.194-.962l.024-.002c0 .26.094.658.195.967l.787 2.437-1.993.003z" fill="#D3603A"/></g></svg><svg width="30" height="30" viewBox="0 0 30 30" id="rer-b" y="264"><path fill="#4F90CD" d="M0 14.997C0 6.711 6.714 0 15.001 0 23.286 0 30 6.711 30 14.997 30 23.281 23.286 30 15.001 30 6.714 29.998 0 23.281 0 14.997"/><path fill="#FFF" d="M2.112 14.997c0-7.125 5.772-12.898 12.89-12.898S27.89 7.872 27.89 14.997s-5.771 12.904-12.888 12.904-12.89-5.779-12.89-12.904"/><path fill="#4F90CD" d="M21.152 17.65c0-2.032-1.234-3.208-2.761-3.417v-.038c1.122-.206 2.289-1.324 2.289-2.806 0-3.111-2.851-3.639-5.186-3.639h-5.366v14.352h5.141c2.719.001 5.883-.834 5.883-4.452m-3.48-5.835c0 1.65-1.686 1.627-2.762 1.627h-1.593V10.15h1.548c1.033 0 2.807-.042 2.807 1.665zm.292 5.751c0 1.872-1.302 2.157-2.782 2.157h-1.865v-4.005h1.685c1.055.002 2.962.063 2.962 1.848z"/></svg><svg width="16" height="16" viewBox="0 0 16 16" id="rer-b--small" x="176" y="145"><title>rer-b--small</title><g fill-rule="nonzero" fill="none"><path d="M0 7.998C0 3.58 3.58 0 8 0s8 3.58 8 7.998a8 8 0 1 1-16 0" fill="#4F90CD"/><path d="M1.126 7.998c0-3.8 3.079-6.879 6.875-6.879A6.876 6.876 0 0 1 14.875 8c0 3.8-3.078 6.882-6.874 6.882a6.88 6.88 0 0 1-6.875-6.883" fill="#FFF"/><path d="M11.281 9.413c0-1.083-.658-1.71-1.472-1.822v-.02c.598-.11 1.22-.706 1.22-1.497 0-1.66-1.52-1.94-2.766-1.94H5.402v7.654h2.741c1.45 0 3.138-.445 3.138-2.375zM9.425 6.301c0 .88-.9.868-1.473.868h-.85V5.413h.826c.55 0 1.497-.022 1.497.888zm.156 3.068c0 .998-.695 1.15-1.484 1.15h-.995V8.383h.9c.562.001 1.579.034 1.579.986z" fill="#4F90CD"/></g></svg><svg width="30" height="30" viewBox="0 0 30 30" id="rer-c" x="30" y="264"><path fill="#EAC81C" d="M0 15.002C0 6.715 6.717 0 15.003 0 23.281 0 30 6.717 30 15c.002 8.285-6.717 14.998-14.997 15C6.717 30 0 23.283 0 15.002"/><path fill="none" d="M0 15.002C0 6.715 6.717 0 15.003 0 23.281 0 30 6.717 30 15c.002 8.285-6.717 14.998-14.997 15C6.717 30 0 23.283 0 15.002z"/><path fill="#FFF" d="M2.107 15.008C2.103 7.882 7.879 2.102 15.003 2.102c7.122 0 12.901 5.778 12.901 12.902 0 7.118-5.775 12.896-12.901 12.895-7.124-.003-12.9-5.777-12.896-12.891"/><path fill="#EAC81C" d="M19.773 21.566l-.811-2.475a5.86 5.86 0 0 1-2.905.779c-2.274 0-4.257-1.76-4.26-4.766-.001-2.288 1.024-4.913 4.027-4.91.924 0 1.961.269 2.909.783l1.04-2.639c-1.045-.474-2.348-.835-4.13-.84-4.845 0-7.163 3.662-7.163 7.689.004 4.25 2.771 7.383 7.163 7.384 1.412-.003 3.086-.474 4.13-1.005"/><path fill="none" d="M19.773 21.566l-.811-2.475a5.86 5.86 0 0 1-2.905.779c-2.274 0-4.257-1.76-4.26-4.766-.001-2.288 1.024-4.913 4.027-4.91.924 0 1.961.269 2.909.783l1.04-2.639c-1.045-.474-2.348-.835-4.13-.84-4.845 0-7.163 3.662-7.163 7.689.004 4.25 2.771 7.383 7.163 7.384 1.412-.003 3.086-.474 4.13-1.005z"/></svg><svg width="16" height="16" viewBox="0 0 16 16" id="rer-c--small" x="208" y="145"><title>rer-c--small</title><g fill="none" fill-rule="evenodd"><path d="M0 8.001a8 8 0 1 1 16.002 0A8 8 0 0 1 0 8" fill="#EAC81C" fill-rule="nonzero"/><path d="M0 8.001a8 8 0 1 1 16.002 0A8 8 0 0 1 0 8z"/><path d="M1.124 8.004a6.88 6.88 0 1 1 6.878 6.875c-3.8-.001-6.88-3.08-6.878-6.875" fill="#FFF" fill-rule="nonzero"/><path d="M10.546 11.502l-.433-1.32c-.39.23-.943.415-1.55.415-1.212 0-2.27-.938-2.271-2.542 0-1.22.546-2.62 2.147-2.618.493 0 1.046.143 1.552.417l.555-1.407c-.558-.253-1.253-.445-2.203-.448-2.584 0-3.82 1.953-3.82 4.1.002 2.267 1.478 3.938 3.82 3.939.753-.002 1.646-.253 2.203-.536" fill="#EAC81C" fill-rule="nonzero"/><path d="M10.546 11.502l-.433-1.32c-.39.23-.943.415-1.55.415-1.212 0-2.27-.938-2.271-2.542 0-1.22.546-2.62 2.147-2.618.493 0 1.046.143 1.552.417l.555-1.407c-.558-.253-1.253-.445-2.203-.448-2.584 0-3.82 1.953-3.82 4.1.002 2.267 1.478 3.938 3.82 3.939.753-.002 1.646-.253 2.203-.536z"/></g></svg><svg width="30" height="30" viewBox="0 0 30 30" id="rer-d" x="60" y="264"><path fill="#00AB67" d="M0 14.998C0 6.712 6.719 0 15 0c8.286 0 15 6.712 15 14.998C30 23.281 23.286 30 15 30 6.719 30 0 23.281 0 14.998"/><path fill="#FFF" d="M2.113 15c0-7.124 5.772-12.9 12.899-12.9 7.119 0 12.896 5.775 12.896 12.9 0 7.123-5.777 12.898-12.896 12.898C7.886 27.9 2.113 22.123 2.113 15"/><path fill="#00AB67" d="M22.527 14.6c0-6.744-5.957-6.846-8.697-6.846H9.645v14.35h4.048c4.387-.001 8.834-1.224 8.834-7.504m-3.267.205c0 3.758-2.115 4.815-4.878 4.815h-1.549v-9.37h1.446c1.955 0 4.981.532 4.981 4.555z"/></svg><svg width="16" height="16" viewBox="0 0 16 16" id="rer-d--small" x="240" y="145"><title>rer-d--small</title><g fill-rule="nonzero" fill="none"><path d="M0 7.999A8 8 0 0 1 8 0a8 8 0 1 1-8 7.999" fill="#00AB67"/><path d="M1.127 8a6.879 6.879 0 1 1 13.757 0A6.88 6.88 0 0 1 1.127 8" fill="#FFF"/><path d="M12.014 7.787c0-3.597-3.177-3.652-4.638-3.652H5.144v7.654h2.159c2.34 0 4.711-.653 4.711-4.002zm-1.742.109c0 2.004-1.128 2.568-2.602 2.568h-.826V5.467h.771c1.043 0 2.657.283 2.657 2.429z" fill="#00AB67"/></g></svg><svg width="30" height="30" viewBox="0 0 30 30" id="rer-e" x="90" y="264"><path fill="#D07FB5" d="M0 15C0 6.714 6.696 0 14.989 0 23.279 0 30 6.714 30 15c0 8.281-6.721 15-15.011 15C6.696 30 0 23.281 0 15"/><path fill="#FFF" d="M2.112 14.998c0-7.127 5.777-12.898 12.9-12.898s12.9 5.773 12.9 12.9c0 7.127-5.776 12.901-12.9 12.901-7.146 0-12.9-5.773-12.9-12.903"/><path fill="#D07FB5" d="M10.787 22.029V7.774l8.83-.003v2.565h-5.661v2.927h5.46v2.462l-5.46.004v3.738l5.954-.008v2.57h-9.123"/></svg><svg width="16" height="16" viewBox="0 0 16 16" id="rer-e--small" x="272" y="145"><title>rer-e--small</title></svg><svg width="40" height="40" viewBox="0 0 40 40" id="rounded-plus" x="63" y="170"><path fill="#777" d="M22 10h-4v8h-8v4h8v8h4v-8h8v-4h-8v-8zM20 0C9 0 0 9 0 20s9 20 20 20 20-9 20-20S31 0 20 0zm0 36c-8.8 0-16-7.2-16-16S11.2 4 20 4s16 7.2 16 16-7.2 16-16 16z"/></svg><svg width="16" height="16" viewBox="0 0 16 16" id="rtm-m1--small" x="304" y="145"><title>rtm-m1--small</title><g transform="translate(2)" fill-rule="nonzero" fill="none"><path fill="#004494" d="M.013 15.97h12.566V.019H.013v15.95z"/><path d="M7.748 14.207H5.54V6.12a7.653 7.653 0 0 1-2.85 1.625V5.798c.575-.183 1.2-.531 1.877-1.041.675-.512 1.137-1.11 1.39-1.791h1.792v11.241z" fill="#FFF"/></g></svg><svg width="16" height="16" viewBox="0 0 16 16" id="rtm-m2--small" x="63" y="210"><title>rtm-m2--small</title><g transform="translate(1 -1)" fill-rule="nonzero" fill="none"><path d="M.098 16.94h13.018V1.14H.098z" fill="#E2001A"/><path d="M10.808 13.549v2.502h-8.77c.095-.946.379-1.842.856-2.69.474-.846 1.411-1.97 2.812-3.37 1.128-1.128 1.82-1.896 2.077-2.299.342-.557.515-1.104.515-1.65 0-.598-.15-1.06-.45-1.384-.301-.323-.715-.482-1.243-.482-.522 0-.938.169-1.246.508-.31.338-.486.9-.534 1.686l-2.492-.268c.147-1.484.613-2.546 1.396-3.192.785-.647 1.763-.967 2.94-.967 1.288 0 2.298.371 3.036 1.119.736.748 1.103 1.679 1.103 2.79 0 .633-.104 1.234-.315 1.806-.211.574-.545 1.173-1.003 1.798-.302.416-.85 1.014-1.637 1.794-.79.777-1.291 1.295-1.5 1.551a4.79 4.79 0 0 0-.513.748h4.968z" fill="#FFF"/></g></svg><svg width="160" height="85" viewBox="-39.5 -1.5 160 85" id="sold-sign" y="85"><path fill="#1B5098" d="M3 0h75a3 3 0 0 1 3 3v44c0 1.656-1.344 3-3 3H3a3 3 0 0 1-3-3V3a3 3 0 0 1 3-3z"/><path fill="#0074E4" d="M3 0h75a3 3 0 0 1 3 3v42c0 1.656-1.344 3-3 3H3a3 3 0 0 1-3-3V3a3 3 0 0 1 3-3zM36 52h10v30H36z"/><path fill="#FFF" d="M16.695 28.221l.176.771h.059l.166-.752 3.096-10.459H23.2L18.365 32h-2.93l-4.824-14.219h3.008l3.076 10.44zM32.275 25.75h-5.889v4.053h6.885V32h-9.736V17.781h9.717v2.197h-6.865v3.574h5.889l-.001 2.198zM45.453 32h-2.842l-5.742-9.717-.059.01V32h-2.852V17.781h2.852l5.742 9.707.06-.01v-9.697h2.842V32zM47.061 32V17.781h4.883c1.738 0 3.17.555 4.297 1.665 1.126 1.11 1.689 2.534 1.689 4.272v2.354c0 1.745-.563 3.169-1.689 4.271-1.128 1.104-2.559 1.657-4.3 1.657h-4.88zm2.85-12.021v9.824h1.885c1.022 0 1.823-.345 2.402-1.034s.868-1.59.868-2.702v-2.371c0-1.099-.289-1.993-.868-2.683s-1.38-1.034-2.402-1.034h-1.885zM70.355 17.781v9.434c0 1.595-.527 2.825-1.582 3.691-1.056.866-2.437 1.299-4.142 1.299-1.698 0-3.071-.433-4.116-1.299-1.045-.866-1.566-2.097-1.566-3.691v-9.434h2.861v9.426c0 .938.25 1.638.752 2.104.5.465 1.19.697 2.069.697.892 0 1.593-.23 2.101-.692s.762-1.165.762-2.108v-9.426l2.861-.001z"/></svg><svg width="20" height="20" viewBox="0 0 20 20" id="star--empty" x="320" y="190"><title>star--empty</title><path d="M10 14.38L4.84 17.5l1.38-5.86L1.68 7.7l5.98-.52L10 1.68l2.34 5.5 5.98.52-4.52 3.94 1.36 5.86z" fill="#E2E2E2" fill-rule="evenodd"/></svg><svg width="20" height="20" viewBox="0 0 20 20" id="star--full" x="320" y="170"><title>star--full</title><path d="M10 14.38L4.84 17.5l1.38-5.86L1.68 7.7l5.98-.52L10 1.68l2.34 5.5 5.98.52-4.52 3.94 1.36 5.86z" fill="#F0A00A" fill-rule="evenodd"/></svg><svg width="20" height="20" viewBox="0 0 20 20" id="star--half" x="320" y="150"><title>star--half</title><g transform="translate(1 1)" fill="none" fill-rule="evenodd"><path fill="#E2E2E2" d="M9 13.38L3.84 16.5l1.38-5.86L.68 6.7l5.98-.52L9 .68l2.34 5.5 5.98.52-4.52 3.94 1.36 5.86z"/><path d="M9 .68l-2.34 5.5-5.98.52 4.54 3.94-1.38 5.86L9 13.38V.68z" fill="#F0A00A"/></g></svg><svg width="30" height="30" viewBox="-111.614365 0.0 559.84247 559.84247" id="star-a" x="270" y="264"><defs><clipPath id="cpa"><path d="M76.71 379.04h48.76v48.76H76.71v-48.76z"/></clipPath></defs><g clip-path="url(#cpa)" transform="matrix(11.4677 0 0 -11.4677 -990.963 4906.22)"><path d="M101.105 426.157c12.55 0 22.7-10.17 22.7-22.76 0-12.54-10.15-22.72-22.7-22.72-12.57 0-22.74 10.18-22.74 22.72 0 12.59 10.17 22.76 22.74 22.76" fill="#fff"/><g transform="translate(78.365 380.677)"><path d="M22.736 45.479c12.551 0 22.708-10.171 22.708-22.757C45.444 10.178 35.287 0 22.736 0 10.171 0 0 10.178 0 22.722c0 12.586 10.171 22.757 22.736 22.757z" fill="none" stroke="#de0024" stroke-width="3.339"/><path d="M25.473 21.93c-2.39 0-7.68-.2-7.68-3.62 0-1.86 1.98-2.75 3.69-2.75 3.05 0 5.9 1.61 5.9 4.72v1.65h-1.91zm1.91-7.87h-.1c-1.71-2.7-4.82-3.78-7.98-3.78-4.72 0-8.96 2.7-8.96 7.77 0 8.7 10.57 8.86 17.04 8.86 0 2.75-2.28 4.5-4.98 4.5-2.53 0-4.66-1.14-6.31-3l-4.15 4.25c2.85 2.69 7 4.04 11.08 4.04 9.08 0 11.51-4.62 11.51-13V10.9h-7.15v3.16z" fill="#de0024"/></g></g></svg><svg width="20" height="20" viewBox="0 0 20 20" id="star-full" x="320" y="130"><path fill="#E7711B" d="M19.955 7.568a.952.952 0 0 0-.757-.667l-5.776-.878L10.84.546A.934.934 0 0 0 10 0a.936.936 0 0 0-.84.546L6.578 6.023l-5.776.878a.945.945 0 0 0-.755.667 1.01 1.01 0 0 0 .236 1.005l4.18 4.261-.986 6.02a.996.996 0 0 0 .373.957.89.89 0 0 0 .985.076L10 17.047l5.168 2.84a.887.887 0 0 0 .985-.076.998.998 0 0 0 .373-.957l-.985-6.02 4.181-4.261c.253-.262.34-.651.233-1.005"/></svg><svg width="16" height="16" viewBox="0 0 16 16" overflow="visible" id="star-full-small" x="175" y="210"><path fill="#E7711B" d="M15.963 6.054a.759.759 0 0 0-.604-.534l-4.62-.702L8.672.437C8.545.169 8.285 0 8 0s-.545.169-.672.437L5.262 4.818l-4.62.702a.76.76 0 0 0-.605.534.81.81 0 0 0 .189.804l3.344 3.409-.79 4.816a.8.8 0 0 0 .298.766c.23.176.536.199.789.061L8 13.637l4.133 2.273a.727.727 0 0 0 .788-.06.803.803 0 0 0 .298-.766l-.79-4.816 3.344-3.409a.81.81 0 0 0 .19-.805"/></svg><svg width="20" height="20" viewBox="0 0 20 20" id="star-gray" x="320" y="110"><path fill="#D8D8D8" d="M19.955 7.567a.952.952 0 0 0-.757-.667l-5.776-.878L10.84.545A.933.933 0 0 0 10 0a.935.935 0 0 0-.84.545L6.578 6.022.802 6.9a.946.946 0 0 0-.755.667 1.01 1.01 0 0 0 .236 1.005l4.18 4.261-.986 6.02a.997.997 0 0 0 .373.957c.289.223.67.25.985.076L10 17.047l5.168 2.84a.887.887 0 0 0 .985-.076 1 1 0 0 0 .373-.957l-.985-6.02 4.181-4.261c.253-.261.34-.652.233-1.006"/></svg><svg width="16" height="16" viewBox="0 0 16 16" overflow="visible" id="star-gray-small" x="207" y="210"><path fill="#D8D8D8" d="M15.963 6.054a.759.759 0 0 0-.604-.534l-4.62-.702L8.672.437A.747.747 0 0 0 8 0a.746.746 0 0 0-.672.437L5.261 4.818l-4.62.702a.76.76 0 0 0-.605.534.81.81 0 0 0 .189.804l3.344 3.41-.79 4.816a.8.8 0 0 0 .298.766c.23.176.536.199.789.061L8 13.637l4.132 2.273a.727.727 0 0 0 .789-.06.803.803 0 0 0 .298-.766l-.791-4.816 3.344-3.41a.805.805 0 0 0 .191-.804"/></svg><svg width="20" height="20" viewBox="0 0 20 20" id="star-half" x="320" y="90"><path fill="#D8D8D8" d="M19.955 7.568a.952.952 0 0 0-.758-.667l-5.775-.878L10.84.546A.935.935 0 0 0 10 0a.935.935 0 0 0-.84.546L6.578 6.023l-5.777.878a.948.948 0 0 0-.755.667c-.111.354-.019.744.236 1.005l4.18 4.261-.987 6.02a1 1 0 0 0 .373.957c.289.224.671.25.986.076L10 17.047l5.168 2.84a.889.889 0 0 0 .985-.076 1 1 0 0 0 .373-.957l-.986-6.02 4.182-4.261c.253-.261.34-.651.233-1.005"/><path fill="#E7711B" d="M10 0a.935.935 0 0 0-.84.546L6.578 6.023l-5.777.878a.948.948 0 0 0-.755.667c-.111.354-.019.744.236 1.005l4.18 4.261-.987 6.02a1 1 0 0 0 .373.957c.289.224.671.25.986.076L10 17.047V0z"/></svg><svg width="16" height="16" viewBox="0 0 16 16" overflow="visible" id="star-half-small" x="239" y="210"><path fill="#D8D8D8" d="M15.963 6.054a.759.759 0 0 0-.604-.534l-4.62-.702L8.672.437C8.545.169 8.285 0 8 0s-.545.169-.672.437L5.262 4.818l-4.62.702a.76.76 0 0 0-.605.534.81.81 0 0 0 .189.804l3.344 3.41-.79 4.816a.8.8 0 0 0 .298.766c.23.176.536.199.789.061L8 13.637l4.133 2.273a.727.727 0 0 0 .788-.06.803.803 0 0 0 .298-.766l-.79-4.816 3.344-3.41a.807.807 0 0 0 .19-.804"/><path fill="#E7711B" d="M8 0a.747.747 0 0 0-.672.437L5.262 4.818l-4.62.702a.76.76 0 0 0-.605.534.81.81 0 0 0 .189.804l3.344 3.41-.79 4.816a.8.8 0 0 0 .298.766c.23.176.536.199.789.061L8 13.637V0z"/></svg><svg width="30" height="30" viewBox="0.0 0.0 72.0 72.0" id="tcl-a" x="320" y="30"><path fill="#ee3898" d="M0 0h72v72H0z"/><path d="M29.6 10.029L13.5 63.58h9.94l3.64-12.6h17.991l3.57 12.6h10.08l-16.45-53.551zm13.44 33.6l-14.07-.07 5.882-20.089c.186-.793.326-1.47.418-2.03.047-.233.14-.653.28-1.26.094-.467.141-.817.141-1.05.047-.234.117-.63.21-1.19h.209c.094.606.164 1.073.211 1.4l.21 1.05c.094.467.163.84.21 1.12.046.327.186.817.42 1.47z" font-size="70" font-weight="700" letter-spacing="0" word-spacing="0" text-anchor="middle" fill="#fff" font-family="Confluence"/></svg><svg width="16" height="16" viewBox="0 0 16 16" id="tcl-a--small" x="271" y="210"><title>tcl-a--small</title><g fill-rule="nonzero" fill="none"><path fill="#EE3898" d="M0 0h16v16H0z"/><path d="M6.578 2.229L3 14.129h2.209l.809-2.8h3.998l.793 2.8h2.24l-3.655-11.9H6.578zm2.986 7.466L6.438 9.68l1.307-4.464c.041-.177.072-.327.093-.451.01-.052.031-.146.062-.28.02-.104.031-.182.031-.234.01-.052.026-.14.047-.264h.046c.021.134.037.238.047.311l.047.233c.02.104.036.187.046.249.01.073.042.182.094.327l1.306 4.588z" fill="#FFF"/></g></svg><svg width="30" height="30" viewBox="0.0 0.0 72.0 72.0" id="tcl-b" x="320"><path fill="#007dc5" d="M0 0h72v72H0z"/><path d="M18.146 10.029V63.58h18.55c2.706 0 5.157-.373 7.35-1.12 2.333-.747 4.292-1.867 5.879-3.36 1.633-1.447 2.916-3.197 3.85-5.25.934-2.1 1.4-4.363 1.4-6.79 0-2.053-.28-3.803-.839-5.25-.467-1.493-1.167-2.776-2.1-3.85a11.042 11.042 0 0 0-3.15-2.52c-1.214-.652-2.404-1.073-3.57-1.26.84-.327 1.703-.817 2.589-1.47a7.785 7.785 0 0 0 2.311-2.31c.7-.98 1.236-2.03 1.609-3.15.42-1.26.63-2.683.63-4.27 0-1.774-.28-3.43-.84-4.97-.512-1.634-1.352-3.033-2.52-4.2-1.166-1.166-2.777-2.076-4.83-2.73-1.96-.7-4.363-1.051-7.21-1.051zM34.525 32.57h-7.21V17.38h7.84c3.127 0 5.391.723 6.791 2.17 1.4 1.4 2.1 3.15 2.1 5.251 0 1.353-.257 2.543-.77 3.57-.514 1.026-1.214 1.843-2.101 2.45-.793.607-1.797 1.05-3.01 1.329-1.12.28-2.333.42-3.64.42zm1.26 23.73h-8.54V39.22h10.01c5.647 0 8.47 2.777 8.47 8.33 0 1.68-.303 3.057-.91 4.13-.607 1.12-1.376 2.03-2.31 2.73a13.116 13.116 0 0 1-3.15 1.471c-1.167.28-2.356.419-3.57.419z" font-size="70" font-weight="700" letter-spacing="0" word-spacing="0" text-anchor="middle" fill="#fff" font-family="Confluence"/></svg><svg width="16" height="16" viewBox="0 0 16 16" id="tcl-b--small" x="303" y="210"><title>tcl-b--small</title><g fill-rule="nonzero" fill="none"><path fill="#007DC5" d="M0 0h16v16H0z"/><path d="M4.033 2.229v11.9h4.121a5.05 5.05 0 0 0 1.634-.249 3.38 3.38 0 0 0 1.306-.747c.363-.321.649-.71.856-1.166.207-.467.311-.97.311-1.51 0-.455-.062-.844-.186-1.166a2.362 2.362 0 0 0-1.167-1.415 2.526 2.526 0 0 0-.793-.28c.186-.073.378-.182.575-.327a1.73 1.73 0 0 0 .514-.513 2.63 2.63 0 0 0 .357-.7c.093-.28.14-.597.14-.95a3.21 3.21 0 0 0-.186-1.104 2.25 2.25 0 0 0-.56-.933c-.26-.26-.618-.462-1.074-.607-.435-.155-.97-.233-1.602-.233H4.033zm3.64 5.009H6.07V3.862h1.742c.695 0 1.198.16 1.51.482.31.312.466.7.466 1.167 0 .301-.057.565-.171.794-.114.228-.27.41-.467.544-.176.135-.4.233-.669.295a3.32 3.32 0 0 1-.809.094zm.28 5.273H6.053V8.716H8.28c1.255 0 1.882.617 1.882 1.85 0 .374-.067.68-.202.918-.135.25-.306.452-.513.607a2.915 2.915 0 0 1-.7.327c-.26.062-.524.093-.794.093z" fill="#FFF"/></g></svg><svg width="30" height="30" viewBox="0.0 0.0 72.0 72.0" id="tcl-c" x="240" y="264"><path fill="#f99d1d" d="M0 0h72v72H0z"/><path d="M16.177 37.61l-.14-.21c0 4.854.7 9.007 2.1 12.459 1.448 3.454 3.338 6.254 5.67 8.402 2.24 2.099 4.877 3.662 7.91 4.689 3.034.98 6.114 1.47 9.24 1.47 3.22 0 6.347-.397 9.38-1.19 2.94-.794 5.46-1.843 7.56-3.15l-2.45-5.6c-1.4.42-2.263.677-2.59.77a33.94 33.94 0 0 1-2.52.63c-.887.187-1.867.327-2.94.42-1.4.094-2.59.14-3.569.14-2.148 0-4.341-.326-6.582-.98a14.453 14.453 0 0 1-5.74-3.15c-1.632-1.446-2.985-3.406-4.059-5.88-1.026-2.473-1.54-5.6-1.54-9.38 0-3.36.444-6.23 1.331-8.611.886-2.472 2.122-4.572 3.709-6.3a15.154 15.154 0 0 1 5.67-3.779c2.194-.84 4.527-1.26 7-1.26 2.38 0 4.526.256 6.44.769 1.54.42 3.173.957 4.9 1.61l2.66-8.329a131.689 131.689 0 0 0-5.53-1.47c-1.866-.466-4.409-.7-7.629-.7-4.48 0-8.47.7-11.971 2.1-3.407 1.307-6.37 3.244-8.889 5.81-2.334 2.427-4.178 5.437-5.53 9.03-1.261 3.5-1.891 7.396-1.891 11.69z" font-size="70" font-weight="700" letter-spacing="0" word-spacing="0" text-anchor="middle" fill="#fff" font-family="Confluence"/></svg><svg width="16" height="16" viewBox="0 0 16 16" id="tcl-c--small" x="300" y="264"><title>tcl-c--small</title><g fill-rule="nonzero" fill="none"><path fill="#F99D1D" d="M0 0h16v16H0z"/><path d="M3.595 8.358l-.031-.047c0 1.079.156 2.002.467 2.769.321.767.741 1.39 1.26 1.867a4.775 4.775 0 0 0 1.757 1.042 6.641 6.641 0 0 0 2.054.326c.715 0 1.41-.088 2.084-.264.653-.176 1.213-.41 1.68-.7l-.544-1.244-.576.171a7.542 7.542 0 0 1-.56.14 5.44 5.44 0 0 1-.653.093c-.311.02-.576.031-.793.031-.478 0-.965-.072-1.463-.218a3.212 3.212 0 0 1-1.276-.7c-.362-.32-.663-.756-.902-1.306-.228-.55-.342-1.245-.342-2.085 0-.746.099-1.384.296-1.913a4.07 4.07 0 0 1 .824-1.4 3.367 3.367 0 0 1 1.26-.84 4.314 4.314 0 0 1 1.556-.28c.528 0 1.005.057 1.43.17.343.094.706.214 1.09.359l.59-1.851a29.264 29.264 0 0 0-1.228-.327c-.415-.104-.98-.155-1.695-.155-.996 0-1.883.155-2.66.466-.758.29-1.416.721-1.976 1.291-.519.54-.928 1.209-1.23 2.007-.28.778-.42 1.644-.42 2.598z" fill="#FFF"/></g></svg><svg width="30" height="30" viewBox="0.0 0.0 72.0 72.0" id="tcl-d" x="210" y="264"><path fill="#00ac4d" d="M0 0h72v72H0z"/><path d="M14.66 10.029v53.692h16.449c4.153 0 7.91-.513 11.27-1.54 3.407-1.027 6.44-2.684 9.101-4.971 2.613-2.287 4.643-5.228 6.088-8.82 1.494-3.64 2.241-7.91 2.241-12.81s-.723-8.96-2.17-12.18c-1.4-3.267-3.314-5.88-5.74-7.84-2.333-2.007-5.086-3.43-8.26-4.27a37.86 37.86 0 0 0-9.73-1.261zm15.819 45.99l-6.65.142V18.08h9.31c5.646 0 9.94 1.586 12.88 4.759 2.94 3.173 4.41 7.863 4.41 14.07 0 3.594-.537 6.65-1.61 9.17-1.073 2.474-2.496 4.434-4.269 5.881-1.727 1.493-3.828 2.542-6.302 3.149-2.38.607-4.97.91-7.77.91z" font-size="70" font-weight="700" letter-spacing="0" word-spacing="0" text-anchor="middle" fill="#fff" font-family="Confluence"/></svg><svg width="16" height="16" viewBox="0 0 16 16" id="tcl-d--small" x="16" y="294"><title>tcl-d--small</title><g fill-rule="nonzero" fill="none"><path fill="#00AC4D" d="M0 0h16v16H0z"/><path d="M3.258 2.229V14.16h3.655c.923 0 1.758-.114 2.505-.342a5.502 5.502 0 0 0 2.022-1.105c.58-.508 1.032-1.161 1.353-1.96.332-.809.498-1.758.498-2.846 0-1.09-.16-1.992-.482-2.707-.311-.726-.737-1.307-1.276-1.742a4.561 4.561 0 0 0-1.835-.95 8.413 8.413 0 0 0-2.163-.28H3.258zm3.515 10.22l-1.478.031V4.018h2.07c1.254 0 2.208.352 2.862 1.058.653.705.98 1.747.98 3.126 0 .799-.12 1.478-.358 2.038-.239.55-.555.985-.949 1.307a3.31 3.31 0 0 1-1.4.7 6.977 6.977 0 0 1-1.727.202z" fill="#FFF"/></g></svg><svg width="72" height="60" viewBox="-0.712 -0.433 72 60" overflow="visible" id="train" x="160" y="85"><path fill="#474747" d="M11.135 1.669c-.815-.701-.717-1.224.294-1.57 3.06-.007 6.12-.009 9.179-.008 1.451 0 13.869-.558 13.242 1.094-.449 1.182-3.69.513-4.572.576-2.68.577-4.896 2.794-5.591 5.467 2.905.054 6.55-.617 9.301.552 4.044 1.719 5.048 7.175 7.144 10.641 3.846 6.353 9.421 11.614 15.943 15.051a40.609 40.609 0 0 0 11.047 3.904c5.283 1.045 4.04 1.832 4.032 7.393-.007 4.527-.147 4.369-4.631 4.369-5.37 0-10.738 0-16.108.002H21.421c-6.486 0-18.279 2.545-20.546-6.145C-.802 36.56.073 25.45 2.298 19.198c1.124-2.863 2.441-9.703 5.043-11.469 2.822-1.914 10.127-.48 13.44-.488-1.274-5.237-5.458-5.057-9.646-5.572-.896-.224 1.333.163 0 0zm11.061 4.726c1.315-1.502 1.658-3.296 3.354-4.663a199 199 0 0 0-6.556 0c.388.436 2.543 2.642 3.202 4.663zM8.252 10.584c-1.985.59-3.202 6.217-3.901 7.922-1.366 3.452 1.885 3.099 4.282 3.101 7.958.006 15.916-.005 23.875.004 4.665.016-.549-11.151-2.709-11.087-6.601-.005-15.14-1.487-21.547.06-.522.155.429-.103 0 0zm35.784 26.7c.01-3.062-.002-6.124.004-9.187.185-.993-4.227-4.751-4.93-5.549.104 4.147-1.554 13.243 4.926 14.736zm6.797 2.909c.02-5.878.401-6.938-4.386-10.396-.042 2.714-1.554 8.727 4.386 10.396zM6.564 32.677c-3.134.809-2.287 5.863.96 5.464 3.824-.155 2.827-6.619-.96-5.464-1.334.344 1.397-.427 0 0zm21.757 0c-3.357.849-2.075 6.228 1.294 5.42 3.529-.643 2.269-6.5-1.294-5.42-1.404.353 1.404-.427 0 0zm28.481 9.388c.061-5.22.553-5.738-3.868-8.062 0 2.32-1.165 6.839 3.868 8.062zm5.16 1.108c-.048-4.383.766-5.16-3.281-6.598-.01 1.988-1.151 6.084 3.281 6.598zm4.359.644c-.016-3.533 1.346-5.172-2.801-5.704.014 1.767-1.453 5.4 2.801 5.704zm3.551.309c-.016-2.593 1.396-5.51-2.281-5.136.033 1.646-1.38 5.144 2.281 5.136zM6 51.757c2.664.004 5.328.007 7.991 0 .507 4.18 1.674 2.749 5.815 2.76 3.982.012 6.253 1.702 6.587-2.756h28.743l9.58-.002c3.65 0 6.455-1.783 6.412 2.715-14.713-.054-28.737 4.143-43.194 4.141-7.103-.001-14.205.005-21.307 0-2.914-.001-6.092 1.583-6.1-2.053-.01-5.329 5.066 1.421 5.473-4.805 2.664.004-.06.912 0 0z"/></svg><svg width="30" height="30" viewBox="0 0 30 30" overflow="visible" id="tramway" x="120" y="234"><path fill="#14489E" d="M29.925 15.074c0-8.283-6.94-14.999-14.888-14.999C6.791.075.076 6.791.076 15.074c0 8.208 6.715 14.851 14.961 14.851s14.888-6.607 14.888-14.851"/><path fill="#FFF" d="M27.873 15.074c0 7.015-5.783 12.871-12.836 12.871-7.088 0-12.91-5.781-12.91-12.871 0-7.125 5.822-13.022 12.91-13.022 7.053 0 12.836 5.933 12.836 13.022z"/><path fill="#14489E" d="M22.424 21.678V8.657c0-.746-.408-1.529-1.641-1.529-.932 0-1.307.41-1.716 1.232l-4.031 8.395H15L10.933 8.36c-.411-.822-.783-1.232-1.717-1.232-1.231 0-1.642.784-1.642 1.529v13.021c0 .711.561 1.12 1.231 1.12.597 0 1.269-.409 1.269-1.12v-9.7h.038l3.694 7.537c.261.522.598.822 1.195.822.596 0 .933-.3 1.194-.822l3.692-7.537h.039v9.7c0 .711.67 1.12 1.268 1.12.671 0 1.23-.409 1.23-1.12z"/><path fill="#FFF" d="M27.873 15.074c0 7.015-5.783 12.871-12.836 12.871-7.088 0-12.91-5.781-12.91-12.871 0-7.125 5.822-13.022 12.91-13.022 7.053 0 12.836 5.932 12.836 13.022z"/><path fill="#14489E" d="M14.886 0C6.642 0 0 6.68 0 14.962A14.858 14.858 0 0 0 14.886 29.85c8.284 0 14.965-6.643 14.965-14.888A14.94 14.94 0 0 0 14.886 0zm0 27.648C7.873 27.648 2.2 21.977 2.2 14.962c0-7.052 5.673-12.76 12.686-12.76 7.053 0 12.763 5.708 12.763 12.76-.001 7.015-5.711 12.686-12.763 12.686z"/><path fill="#14489E" d="M20.855 7.874H9.03c-.672 0-1.045.559-1.045 1.156 0 .523.373 1.157 1.045 1.157h4.55v12.238c0 .671.71 1.047 1.342 1.047.711 0 1.383-.376 1.383-1.047V10.186h4.55c.673 0 1.045-.633 1.045-1.157 0-.597-.372-1.155-1.045-1.155z"/></svg><svg width="16" height="16" viewBox="0 0 16 16" id="tramway--small" x="192" y="145"><title>tramway--small</title><g fill-rule="nonzero" fill="none"><path d="M15.96 8.04c0-4.418-3.701-8-7.94-8-4.398 0-7.98 3.582-7.98 8 0 4.377 3.582 7.92 7.98 7.92a7.908 7.908 0 0 0 7.94-7.92" fill="#14489E"/><path d="M14.866 8.04c0 3.74-3.085 6.864-6.846 6.864-3.78 0-6.886-3.083-6.886-6.865 0-3.8 3.105-6.945 6.886-6.945 3.761 0 6.846 3.165 6.846 6.945z" fill="#FFF"/><path d="M11.96 11.562V4.617c0-.398-.218-.815-.876-.815-.497 0-.697.218-.915.657L8.02 8.936H8L5.83 4.459c-.218-.439-.417-.657-.915-.657-.656 0-.876.418-.876.815v6.945c0 .379.3.597.657.597.318 0 .677-.218.677-.597V6.388h.02l1.97 4.02c.14.278.32.438.638.438.317 0 .497-.16.636-.438l1.97-4.02h.02v5.174c0 .379.358.597.676.597.358 0 .656-.218.656-.597z" fill="#14489E"/><path d="M14.866 8.04c0 3.74-3.085 6.864-6.846 6.864-3.78 0-6.886-3.083-6.886-6.865 0-3.8 3.105-6.945 6.886-6.945 3.761 0 6.846 3.164 6.846 6.945z" fill="#FFF"/><path d="M7.94 0C3.541 0 0 3.563 0 7.98a7.924 7.924 0 0 0 7.94 7.94c4.417 0 7.98-3.543 7.98-7.94A7.968 7.968 0 0 0 7.94 0zm0 14.746A6.76 6.76 0 0 1 1.172 7.98c0-3.761 3.026-6.806 6.766-6.806a6.803 6.803 0 0 1 6.807 6.806c0 3.741-3.046 6.766-6.807 6.766z" fill="#14489E"/><path d="M11.123 4.2H4.816c-.358 0-.557.298-.557.616 0 .279.199.617.557.617h2.427v6.527c0 .358.378.558.715.558.38 0 .738-.2.738-.558V5.433h2.427c.359 0 .557-.338.557-.618 0-.318-.198-.616-.557-.616z" fill="#14489E"/></g></svg><svg width="16" height="16" viewBox="0 0 16 16" id="transpole-1--small" x="320" y="242"><title>transpole-1--small</title><g fill-rule="nonzero" fill="none"><path d="M0 7.913A7.912 7.912 0 0 1 7.914 0 7.913 7.913 0 1 1 0 7.913" fill="#FFCD09"/><path d="M9.133 12.084V3.698H7.672c-.38.296-1.283.855-2.257 1.317l-.51.24.57 1.282.441-.227c.307-.152 1.15-.591 1.436-.818v6.592h1.781" fill="#000"/></g></svg><svg width="30" height="30" viewBox="-0.966 -0.696 55.0 55.0" id="transpole-2" x="180" y="234"><path fill="#e43417" d="M0 26.711C0 11.953 11.953 0 26.707 0s26.711 11.953 26.711 26.711c0 14.742-11.957 26.699-26.711 26.699S0 41.453 0 26.711"/><path fill="#FFF" d="M36.133 39.574v-4.738h-11.68c.367-1.641 3.211-4.008 4.652-5.328 3.41-3.098 6.496-5.297 6.496-10.148 0-5.77-4.684-8.578-9.656-8.578-3.812 0-6.336 1.121-9.066 3.492l2.977 3.93c.676-.766 2.402-2.57 4.883-2.57 3.086 0 4.688 1.965 4.688 4.406 0 2.734-2.031 4.691-3.918 6.336-3.777 3.289-7.023 6.172-7.742 9.469v3.73h18.366"/></svg><svg width="16" height="16" viewBox="0 0 16 16" id="transpole-2--small" x="255" y="210"><title>transpole-2--small</title><g fill-rule="nonzero" fill="none"><path d="M0 7.914A7.912 7.912 0 0 1 7.913 0a7.913 7.913 0 1 1 0 15.825A7.912 7.912 0 0 1 0 7.915" fill="#E43417"/><path d="M10.706 11.726v-1.404h-3.46c.108-.486.95-1.188 1.378-1.579 1.01-.918 1.924-1.57 1.924-3.007 0-1.71-1.387-2.541-2.86-2.541-1.13 0-1.878.332-2.687 1.034l.882 1.165c.2-.227.712-.762 1.447-.762.914 0 1.39.583 1.39 1.306 0 .81-.603 1.39-1.162 1.877-1.119.975-2.08 1.829-2.294 2.806v1.105h5.442" fill="#FFF"/></g></svg></svg>
